<?xml version="1.0" encoding="UTF-8"?>
<svg id="Layer_2" data-name="Layer 2" xmlns="http://www.w3.org/2000/svg" viewBox="0 0 35.2 25.2">
  <defs>
    <style>
      .cls-1 {
        fill: #b50612;
      }
    </style>
  </defs>
  <g id="Layer_1-2" data-name="Layer 1">
    <g>
      <path class="cls-1" d="M20.6,25.2H4.6c-2.54,0-4.6-2.06-4.6-4.6V4.6C0,2.06,2.06,0,4.6,0h16c2.54,0,4.6,2.06,4.6,4.6v16c0,2.54-2.06,4.6-4.6,4.6ZM4.6,1.2c-1.88,0-3.4,1.53-3.4,3.4v16c0,1.88,1.52,3.4,3.4,3.4h16c1.88,0,3.4-1.53,3.4-3.4V4.6c0-1.88-1.52-3.4-3.4-3.4H4.6Z"/>
      <path class="cls-1" d="M33.6,22.28c-.32,0-.64-.1-.92-.29l-8.43-5.9c-.16-.11-.26-.3-.26-.49v-6c0-.2.1-.38.26-.49l8.43-5.9c.49-.34,1.13-.39,1.66-.11.53.28.86.82.86,1.42v16.16c0,.6-.33,1.14-.86,1.42-.23.12-.49.18-.74.18ZM25.2,15.29l8.17,5.72c.18.12.35.06.41.03s.22-.14.22-.35V4.52c0-.22-.15-.32-.21-.35-.07-.04-.24-.1-.41.03l-8.17,5.72v5.38Z"/>
    </g>
  </g>
</svg>