<?xml version="1.0" encoding="UTF-8"?>
<svg id="Layer_2" data-name="Layer 2" xmlns="http://www.w3.org/2000/svg" viewBox="0 0 31.2 35.2">
  <defs>
    <style>
      .cls-1 {
        fill: #b50612;
      }
    </style>
  </defs>
  <g id="Layer_1-2" data-name="Layer 1">
    <path class="cls-1" d="M15.6,35.2c-.07,0-.14-.01-.2-.04C3.2,30.76.77,17.92,0,8.65c-.03-.32.2-.6.52-.64C6.32,7.23,11.1,4.67,15.16.2c.11-.13.28-.2.44-.2h0c.17,0,.33.07.44.2,4.05,4.48,8.84,7.03,14.63,7.81.32.04.54.33.52.64-.77,9.27-3.19,22.11-15.39,26.51-.07.02-.13.04-.2.04ZM1.25,9.11c.79,8.84,3.22,20.7,14.35,24.85,11.14-4.15,13.57-16.01,14.35-24.85-5.55-.87-10.38-3.43-14.35-7.63-3.98,4.2-8.8,6.76-14.35,7.63Z"/>
  </g>
</svg>