<?xml version="1.0" encoding="UTF-8"?>
<svg id="Layer_2" data-name="Layer 2" xmlns="http://www.w3.org/2000/svg" viewBox="0 0 35.2 23.2">
  <defs>
    <style>
      .cls-1 {
        fill: #b50612;
      }
    </style>
  </defs>
  <g id="Layer_1-2" data-name="Layer 1">
    <g>
      <path class="cls-1" d="M17.6,23.2C8.12,23.2,0,13.8,0,11.6S8.12,0,17.6,0s17.6,9.4,17.6,11.6-8.12,11.6-17.6,11.6ZM17.6,1.2C8.37,1.2,1.22,10.39,1.2,11.6c.02,1.21,7.18,10.4,16.4,10.4s16.38-9.19,16.4-10.4c-.02-1.21-7.17-10.4-16.4-10.4Z"/>
      <path class="cls-1" d="M17.6,18.2c-3.64,0-6.6-2.96-6.6-6.6s2.96-6.6,6.6-6.6,6.6,2.96,6.6,6.6-2.96,6.6-6.6,6.6ZM17.6,6.2c-2.98,0-5.4,2.42-5.4,5.4s2.42,5.4,5.4,5.4,5.4-2.42,5.4-5.4-2.42-5.4-5.4-5.4Z"/>
    </g>
  </g>
</svg>