<?xml version="1.0" encoding="UTF-8"?>
<svg id="Layer_2" data-name="Layer 2" xmlns="http://www.w3.org/2000/svg" viewBox="0 0 35.6 36.6">
  <defs>
    <style>
      .cls-1 {
        fill: #b50612;
      }
    </style>
  </defs>
  <g id="Layer_1-2" data-name="Layer 1">
    <g>
      <path class="cls-1" d="M30.6,36.6H4.6c-2.54,0-4.6-2.06-4.6-4.6V8C0,5.46,2.06,3.4,4.6,3.4h26c2.54,0,4.6,2.06,4.6,4.6v24c0,2.54-2.06,4.6-4.6,4.6ZM4.6,4.6c-1.88,0-3.4,1.53-3.4,3.4v24c0,1.88,1.52,3.4,3.4,3.4h26c1.88,0,3.4-1.53,3.4-3.4V8c0-1.88-1.52-3.4-3.4-3.4H4.6Z"/>
      <rect class="cls-1" x="1.6" y="11.4" width="34" height="1.2"/>
      <rect class="cls-1" x="8" y="0" width="1.2" height="7"/>
      <rect class="cls-1" x="26" y="0" width="1.2" height="7"/>
      <path class="cls-1" d="M9.6,22.6h-4c-.88,0-1.6-.72-1.6-1.6v-4c0-.88.72-1.6,1.6-1.6h4c.88,0,1.6.72,1.6,1.6v4c0,.88-.72,1.6-1.6,1.6ZM5.6,16.6c-.22,0-.4.18-.4.4v4c0,.22.18.4.4.4h4c.22,0,.4-.18.4-.4v-4c0-.22-.18-.4-.4-.4h-4Z"/>
      <path class="cls-1" d="M19.6,22.6h-4c-.88,0-1.6-.72-1.6-1.6v-4c0-.88.72-1.6,1.6-1.6h4c.88,0,1.6.72,1.6,1.6v4c0,.88-.72,1.6-1.6,1.6ZM15.6,16.6c-.22,0-.4.18-.4.4v4c0,.22.18.4.4.4h4c.22,0,.4-.18.4-.4v-4c0-.22-.18-.4-.4-.4h-4Z"/>
      <path class="cls-1" d="M29.6,22.6h-4c-.88,0-1.6-.72-1.6-1.6v-4c0-.88.72-1.6,1.6-1.6h4c.88,0,1.6.72,1.6,1.6v4c0,.88-.72,1.6-1.6,1.6ZM25.6,16.6c-.22,0-.4.18-.4.4v4c0,.22.18.4.4.4h4c.22,0,.4-.18.4-.4v-4c0-.22-.18-.4-.4-.4h-4Z"/>
      <path class="cls-1" d="M9.6,32.6h-4c-.88,0-1.6-.72-1.6-1.6v-4c0-.88.72-1.6,1.6-1.6h4c.88,0,1.6.72,1.6,1.6v4c0,.88-.72,1.6-1.6,1.6ZM5.6,26.6c-.22,0-.4.18-.4.4v4c0,.22.18.4.4.4h4c.22,0,.4-.18.4-.4v-4c0-.22-.18-.4-.4-.4h-4Z"/>
      <path class="cls-1" d="M19.6,32.6h-4c-.88,0-1.6-.72-1.6-1.6v-4c0-.88.72-1.6,1.6-1.6h4c.88,0,1.6.72,1.6,1.6v4c0,.88-.72,1.6-1.6,1.6ZM15.6,26.6c-.22,0-.4.18-.4.4v4c0,.22.18.4.4.4h4c.22,0,.4-.18.4-.4v-4c0-.22-.18-.4-.4-.4h-4Z"/>
      <path class="cls-1" d="M29.6,32.6h-4c-.88,0-1.6-.72-1.6-1.6v-4c0-.88.72-1.6,1.6-1.6h4c.88,0,1.6.72,1.6,1.6v4c0,.88-.72,1.6-1.6,1.6ZM25.6,26.6c-.22,0-.4.18-.4.4v4c0,.22.18.4.4.4h4c.22,0,.4-.18.4-.4v-4c0-.22-.18-.4-.4-.4h-4Z"/>
    </g>
  </g>
</svg>