<?xml version="1.0" encoding="UTF-8"?>
<svg id="Layer_2" data-name="Layer 2" xmlns="http://www.w3.org/2000/svg" viewBox="0 0 37.2 37.2">
  <defs>
    <style>
      .cls-1 {
        fill: #b50612;
      }
    </style>
  </defs>
  <g id="Layer_1-2" data-name="Layer 1">
    <g>
      <path class="cls-1" d="M19.79,37.2h-2.39c-1.34,0-2.45-1-2.59-2.34l-.34-3.3c-.75-.24-1.47-.54-2.13-.88l-2.57,2.1c-1.04.85-2.53.77-3.48-.18l-1.69-1.69c-.95-.95-1.02-2.44-.18-3.48l2.1-2.58c-.36-.7-.66-1.42-.88-2.13l-3.3-.34c-1.33-.13-2.34-1.25-2.34-2.59v-2.39c0-1.34,1-2.45,2.34-2.59l3.3-.34c.24-.75.54-1.47.88-2.13l-2.1-2.57c-.85-1.04-.77-2.54.18-3.48l1.69-1.69c.95-.95,2.44-1.02,3.48-.18l2.58,2.1c.7-.36,1.42-.66,2.13-.88l.34-3.3c.14-1.33,1.25-2.34,2.59-2.34h2.39c1.34,0,2.45,1,2.59,2.34l.34,3.3c.75.24,1.47.54,2.13.88l2.57-2.1c1.04-.85,2.53-.77,3.48.18l1.69,1.69c.95.95,1.02,2.44.18,3.48l-2.1,2.58c.36.7.66,1.42.88,2.13l3.3.34c1.33.14,2.34,1.25,2.34,2.59v2.39c0,1.34-1,2.45-2.34,2.59l-3.3.34c-.24.75-.54,1.47-.88,2.13l2.1,2.57c.85,1.04.77,2.53-.18,3.48l-1.69,1.69c-.95.95-2.44,1.02-3.48.18l-2.58-2.1c-.7.36-1.42.66-2.13.88l-.34,3.3c-.14,1.33-1.25,2.34-2.59,2.34ZM12.28,29.36c.1,0,.2.03.29.08.8.45,1.68.82,2.63,1.09.23.07.41.27.43.51l.38,3.7c.07.72.67,1.26,1.39,1.26h2.39c.72,0,1.32-.54,1.39-1.26l.38-3.7c.02-.25.2-.45.44-.52.89-.25,1.77-.61,2.63-1.09.21-.12.48-.1.67.06l2.89,2.35c.56.46,1.37.42,1.88-.09l1.69-1.69c.51-.51.55-1.32.1-1.88l-2.35-2.88c-.16-.19-.18-.46-.06-.67.45-.8.82-1.69,1.09-2.63.07-.24.27-.41.52-.43l3.7-.38c.72-.07,1.26-.67,1.26-1.39v-2.39c0-.72-.54-1.32-1.26-1.39l-3.7-.38c-.25-.02-.45-.2-.52-.44-.25-.88-.61-1.77-1.09-2.63-.12-.21-.09-.48.06-.67l2.35-2.89c.46-.56.41-1.37-.1-1.88l-1.69-1.69c-.51-.51-1.31-.55-1.88-.09l-2.88,2.35c-.19.16-.46.18-.67.06-.8-.45-1.69-.82-2.63-1.09-.23-.07-.41-.27-.43-.51l-.38-3.7c-.07-.72-.67-1.26-1.39-1.26h-2.39c-.72,0-1.32.54-1.39,1.26l-.38,3.7c-.02.25-.2.45-.44.52-.88.25-1.77.61-2.63,1.09-.21.12-.48.09-.67-.06l-2.89-2.35c-.56-.46-1.36-.42-1.88.09l-1.69,1.69c-.51.51-.55,1.32-.09,1.88l2.35,2.88c.16.19.18.46.06.67-.45.8-.82,1.68-1.09,2.63-.07.24-.27.41-.52.43l-3.7.38c-.72.07-1.26.67-1.26,1.39v2.39c0,.72.54,1.32,1.26,1.39l3.7.38c.25.02.45.2.52.44.25.89.61,1.77,1.09,2.63.12.21.09.48-.06.67l-2.35,2.89c-.46.56-.42,1.36.09,1.88l1.69,1.69c.51.51,1.32.55,1.88.09l2.88-2.35c.11-.09.24-.13.38-.13Z"/>
      <path class="cls-1" d="M18.6,25.2c-3.64,0-6.6-2.96-6.6-6.6s2.96-6.6,6.6-6.6,6.6,2.96,6.6,6.6-2.96,6.6-6.6,6.6ZM18.6,13.2c-2.98,0-5.4,2.42-5.4,5.4s2.42,5.4,5.4,5.4,5.4-2.42,5.4-5.4-2.42-5.4-5.4-5.4Z"/>
    </g>
  </g>
</svg>