<?xml version="1.0" encoding="UTF-8"?>
<svg id="Layer_2" data-name="Layer 2" xmlns="http://www.w3.org/2000/svg" viewBox="0 0 34.56 35.2">
  <defs>
    <style>
      .cls-1 {
        fill: #b50612;
      }
    </style>
  </defs>
  <g id="Layer_1-2" data-name="Layer 1">
    <g>
      <path class="cls-1" d="M27.69,35.2H6.87c-2.36,0-4.32-1.77-4.57-4.11L.03,9.85c-.23-2.23,1.15-4.29,3.29-4.91,1.73-.5,4.51-1.18,7.93-1.58l.14,1.19c-3.33.39-6.05,1.06-7.73,1.54-1.58.46-2.6,1.98-2.43,3.63l2.28,21.24c.18,1.73,1.63,3.04,3.37,3.04h20.82c1.74,0,3.19-1.3,3.37-3.03l2.28-21.24c.17-1.65-.85-3.17-2.43-3.63-1.69-.49-4.4-1.15-7.73-1.54l.14-1.19c3.41.4,6.19,1.08,7.93,1.58,2.14.62,3.52,2.68,3.29,4.91l-2.28,21.24c-.24,2.34-2.21,4.11-4.57,4.11Z"/>
      <path class="cls-1" d="M17.28,15.2c-4.19,0-7.6-3.41-7.6-7.6S13.09,0,17.28,0s7.6,3.41,7.6,7.6-3.41,7.6-7.6,7.6ZM17.28,1.2c-3.53,0-6.4,2.87-6.4,6.4s2.87,6.4,6.4,6.4,6.4-2.87,6.4-6.4-2.87-6.4-6.4-6.4Z"/>
      <rect class="cls-1" x="16.68" y="3.6" width="1.2" height="5"/>
    </g>
  </g>
</svg>