<?xml version="1.0" encoding="UTF-8"?>
<svg id="Layer_2" data-name="Layer 2" xmlns="http://www.w3.org/2000/svg" viewBox="0 0 24.2 32.04">
  <defs>
    <style>
      .cls-1 {
        fill: #b50612;
      }
    </style>
  </defs>
  <g id="Layer_1-2" data-name="Layer 1">
    <g>
      <path class="cls-1" d="M5.6,32.04c-3.09,0-5.6-2.51-5.6-5.6s2.51-5.6,5.6-5.6,5.6,2.51,5.6,5.6-2.51,5.6-5.6,5.6ZM5.6,22.04c-2.43,0-4.4,1.97-4.4,4.4s1.97,4.4,4.4,4.4,4.4-1.97,4.4-4.4-1.97-4.4-4.4-4.4Z"/>
      <path class="cls-1" d="M11.2,26.44h-1.2V1.6c0-.47.2-.91.56-1.21.36-.3.83-.44,1.29-.37l11,1.69c.79.12,1.36.79,1.36,1.58v4.98c0,.47-.2.91-.56,1.21-.35.31-.82.44-1.28.37l-11.16-1.72v18.3ZM11.2,6.92l11.34,1.74c.15.02.27-.05.32-.09.05-.04.14-.14.14-.3V3.29c0-.2-.14-.37-.34-.4l-11-1.69c-.16-.02-.27.05-.32.09-.05.04-.14.14-.14.3v5.32Z"/>
    </g>
  </g>
</svg>