<?xml version="1.0" encoding="UTF-8"?>
<svg id="Layer_2" data-name="Layer 2" xmlns="http://www.w3.org/2000/svg" viewBox="0 0 37.15 37.12">
  <defs>
    <style>
      .cls-1 {
        fill: #b50612;
      }
    </style>
  </defs>
  <g id="Layer_1-2" data-name="Layer 1">
    <g>
      <path class="cls-1" d="M28.6,37.12H4.6c-2.54,0-4.6-2.06-4.6-4.6V8.52C0,5.98,2.06,3.92,4.6,3.92h14v1.2H4.6c-1.88,0-3.4,1.53-3.4,3.4v24c0,1.88,1.52,3.4,3.4,3.4h24c1.88,0,3.4-1.53,3.4-3.4v-14h1.2v14c0,2.54-2.06,4.6-4.6,4.6Z"/>
      <path class="cls-1" d="M16.6,21.12c-.16,0-.31-.06-.42-.18-.15-.15-.21-.37-.16-.57l1.41-5.66c.03-.11.08-.2.16-.28L31.01,1.02c1.36-1.36,3.73-1.36,5.09,0,.68.68,1.05,1.58,1.05,2.54s-.37,1.87-1.05,2.54l-13.42,13.42c-.08.08-.17.13-.28.16l-5.66,1.41s-.1.02-.15.02ZM18.56,15.17l-1.13,4.53,4.53-1.13,13.3-13.3c.45-.45.7-1.06.7-1.7s-.25-1.24-.7-1.7c-.91-.91-2.49-.91-3.39,0l-13.3,13.3Z"/>
      <rect class="cls-1" x="31.54" y="1.98" width="1.2" height="6" transform="translate(5.89 24.18) rotate(-45)"/>
    </g>
  </g>
</svg>