<?xml version="1.0" encoding="UTF-8"?>
<svg id="Layer_2" data-name="Layer 2" xmlns="http://www.w3.org/2000/svg" viewBox="0 0 41.05 41.19">
  <defs>
    <style>
      .cls-1 {
        fill: #b50612;
      }
    </style>
  </defs>
  <g id="Layer_1-2" data-name="Layer 1">
    <g>
      <path class="cls-1" d="M11.77,7.86c-.19,0-.38-.09-.5-.27-.18-.28-.11-.65.17-.83,2.14-1.43,4.55-2.31,7.14-2.63,2.87-.35,5.79.05,8.44,1.17.31.13.45.48.32.79-.13.3-.48.45-.79.32-2.46-1.04-5.17-1.41-7.83-1.08-2.41.3-4.64,1.12-6.62,2.44-.1.07-.22.1-.33.1Z"/>
      <path class="cls-1" d="M11.22,13.7c-.13,0-.26-.04-.37-.13-.26-.21-.3-.58-.09-.84,2.06-2.58,5.02-4.22,8.31-4.63,3.42-.42,6.91.6,9.57,2.79.26.21.29.59.08.84-.21.25-.59.29-.84.08-2.44-2.02-5.52-2.91-8.66-2.53-2.98.37-5.65,1.85-7.52,4.19-.12.15-.29.22-.47.22Z"/>
      <path class="cls-1" d="M15.5,40.54c-.13,0-.25-.04-.36-.12-.26-.2-.32-.58-.12-.84.83-1.09,1.56-2.27,2.19-3.5.63-1.2,1.17-2.45,1.6-3.73.43-1.28.76-2.57.99-3.84.23-1.3.36-2.62.4-3.92.03-1.3-.04-2.61-.19-3.91-.04-.33.19-.63.52-.67.33-.05.63.19.67.52.17,1.35.23,2.72.2,4.08-.03,1.37-.17,2.75-.41,4.1-.23,1.33-.58,2.68-1.03,4.02-.45,1.34-1.02,2.65-1.68,3.9-.66,1.29-1.43,2.52-2.3,3.67-.12.16-.3.24-.48.24Z"/>
      <path class="cls-1" d="M28.65,27.76s-.04,0-.06,0c-.33-.03-.57-.33-.54-.66.22-2.3.2-4.65-.07-7,0-.16-.02-.28-.04-.4-.02-.13-.03-.24-.05-.36-.27-1.56-1.01-2.95-2.14-4.04-.24-.23-.25-.61-.02-.85s.61-.25.85-.01c1.31,1.26,2.17,2.88,2.48,4.68.03.14.04.28.06.43.02.16.04.31.04.46.27,2.39.3,4.83.07,7.21-.03.31-.29.54-.6.54Z"/>
      <path class="cls-1" d="M24.79,40.76c-.09,0-.19-.02-.28-.07-.29-.16-.41-.52-.25-.81.82-1.56,1.51-3.16,2.06-4.76.45-1.29.82-2.62,1.11-3.95.07-.32.39-.53.71-.46.32.07.53.39.46.71-.3,1.38-.69,2.76-1.15,4.09-.56,1.65-1.28,3.31-2.13,4.92-.11.2-.32.32-.53.32Z"/>
      <path class="cls-1" d="M30.1,38.81c-.07,0-.15-.01-.22-.04-.31-.12-.46-.47-.34-.78.8-2.03,1.43-4.14,1.87-6.27.85-4.09,1.02-8.3.51-12.5-.22-1.82-.86-3.51-1.89-5.02-.19-.27-.12-.65.16-.83.27-.19.65-.11.83.16,1.14,1.67,1.84,3.54,2.09,5.55.53,4.34.36,8.67-.52,12.89-.46,2.2-1.1,4.37-1.93,6.46-.09.24-.32.38-.56.38Z"/>
      <path class="cls-1" d="M36.81,25.21h0c-.33,0-.6-.27-.59-.61.02-1.97-.09-3.95-.32-5.87-.55-4.46-3.01-8.46-6.76-10.95-.28-.18-.35-.56-.17-.83.18-.28.56-.35.83-.17,4.04,2.69,6.69,6.99,7.28,11.8.24,1.98.35,4.01.33,6.03,0,.33-.27.59-.6.59Z"/>
      <path class="cls-1" d="M35.67,34.34s-.09,0-.14-.02c-.32-.08-.52-.4-.45-.72.42-1.78.73-3.61.9-5.41.03-.33.32-.58.66-.54.33.03.57.33.54.66-.18,1.86-.5,3.74-.93,5.57-.07.28-.31.46-.58.46Z"/>
      <path class="cls-1" d="M19.92,41.19c-.11,0-.22-.03-.32-.09-.28-.18-.36-.55-.18-.83.82-1.29,1.54-2.63,2.15-3.99.62-1.36,1.13-2.79,1.53-4.24.42-1.52.72-3.06.9-4.58.28-2.42.27-4.87-.02-7.28-.11-.9-.57-1.71-1.28-2.27-.72-.56-1.61-.8-2.51-.7-1.86.23-3.19,1.93-2.96,3.79.27,2.19.23,4.4-.12,6.56-.22,1.39-.56,2.76-1.03,4.09-.44,1.27-1.01,2.53-1.69,3.75-.7,1.24-1.48,2.39-2.34,3.42-.21.25-.59.29-.85.08-.25-.21-.29-.59-.08-.85.81-.97,1.56-2.06,2.22-3.24.65-1.15,1.19-2.35,1.6-3.55.44-1.26.77-2.57.98-3.89.33-2.05.36-4.14.11-6.22-.31-2.52,1.49-4.82,4.01-5.13,1.22-.15,2.43.18,3.39.94.97.76,1.58,1.85,1.73,3.07.31,2.5.32,5.04.03,7.56-.19,1.58-.5,3.18-.94,4.76-.42,1.51-.96,2.99-1.6,4.41-.63,1.41-1.38,2.81-2.23,4.14-.11.18-.31.28-.51.28Z"/>
      <path class="cls-1" d="M11.69,30.87c-.07,0-.14-.01-.2-.04-.31-.11-.47-.46-.36-.77.12-.35.24-.7.34-1.06h0s.03-.12.03-.12c.68-2.35.87-4.79.56-7.24-.28-2.28.34-4.53,1.76-6.34,1.41-1.81,3.45-2.96,5.73-3.24,1.4-.17,2.83,0,4.14.51.31.12.46.47.34.78-.12.31-.47.46-.78.34-1.12-.44-2.36-.59-3.56-.44-1.96.24-3.71,1.23-4.93,2.79-1.22,1.56-1.75,3.5-1.51,5.46.32,2.58.12,5.15-.58,7.63l-.02.09c-.11.42-.25.83-.4,1.25-.09.25-.32.4-.56.4Z"/>
      <path class="cls-1" d="M8.2,36.88c-.14,0-.28-.05-.39-.15-.25-.22-.28-.59-.06-.85.85-.99,1.59-2.05,2.19-3.15.16-.29.52-.4.81-.24.29.16.4.52.24.81-.64,1.18-1.43,2.31-2.33,3.37-.12.14-.29.21-.46.21Z"/>
      <path class="cls-1" d="M5.32,34.09c-.14,0-.27-.05-.39-.14-.25-.21-.29-.59-.07-.85.88-1.05,1.6-2.22,2.14-3.47,1.03-2.35,1.41-4.94,1.09-7.5-.27-2.16,0-4.27.82-6.27.12-.31.48-.45.78-.33.31.12.46.47.33.78-.73,1.81-.98,3.71-.74,5.67.34,2.77-.07,5.57-1.18,8.12-.59,1.36-1.37,2.62-2.33,3.77-.12.14-.29.21-.46.21Z"/>
      <path class="cls-1" d="M2.94,30.6c-.12,0-.23-.03-.33-.1-.27-.18-.35-.56-.16-.83,1.39-2.07,1.98-4.57,1.68-7.04-.64-5.18,1.14-10.25,4.88-13.91.24-.23.62-.23.85,0,.23.24.23.62,0,.85-3.47,3.4-5.12,8.1-4.52,12.91.34,2.76-.33,5.55-1.87,7.86-.12.17-.31.27-.5.27Z"/>
      <path class="cls-1" d="M40.45,18.77c-.3,0-.56-.22-.59-.53-.34-2.76-1.24-5.35-2.68-7.7-.17-.28-.08-.65.2-.82.28-.17.65-.08.83.2,1.53,2.5,2.48,5.25,2.84,8.18.04.33-.19.63-.52.67-.02,0-.05,0-.07,0Z"/>
      <path class="cls-1" d="M1.66,14.78c-.06,0-.13-.01-.19-.03-.31-.11-.48-.45-.38-.76C3.61,6.54,10.29,1.11,18.09.16c6.98-.86,13.84,1.86,18.33,7.26.21.25.18.63-.08.84-.26.21-.63.18-.85-.08C31.26,3.09,24.81.54,18.24,1.35,10.89,2.25,4.6,7.36,2.22,14.38c-.08.25-.32.41-.57.41Z"/>
      <path class="cls-1" d="M.75,23.64c-.3,0-.56-.22-.59-.53-.23-1.9-.2-3.82.1-5.7.05-.33.36-.55.69-.5.33.05.55.36.5.69-.28,1.77-.31,3.58-.09,5.37.04.33-.19.63-.52.67-.02,0-.05,0-.07,0Z"/>
    </g>
  </g>
</svg>