<?xml version="1.0" encoding="UTF-8"?>
<svg id="Layer_2" data-name="Layer 2" xmlns="http://www.w3.org/2000/svg" viewBox="0 0 35.2 35.2">
  <defs>
    <style>
      .cls-1 {
        fill: #b50612;
      }
    </style>
  </defs>
  <g id="Layer_1-2" data-name="Layer 1">
    <g>
      <path class="cls-1" d="M6.6,24.2c-3.64,0-6.6-2.96-6.6-6.6s2.96-6.6,6.6-6.6,6.6,2.96,6.6,6.6-2.96,6.6-6.6,6.6ZM6.6,12.2c-2.98,0-5.4,2.42-5.4,5.4s2.42,5.4,5.4,5.4,5.4-2.42,5.4-5.4-2.42-5.4-5.4-5.4Z"/>
      <path class="cls-1" d="M28.6,13.2c-3.64,0-6.6-2.96-6.6-6.6S24.96,0,28.6,0s6.6,2.96,6.6,6.6-2.96,6.6-6.6,6.6ZM28.6,1.2c-2.98,0-5.4,2.42-5.4,5.4s2.42,5.4,5.4,5.4,5.4-2.42,5.4-5.4-2.42-5.4-5.4-5.4Z"/>
      <path class="cls-1" d="M28.6,35.2c-3.64,0-6.6-2.96-6.6-6.6s2.96-6.6,6.6-6.6,6.6,2.96,6.6,6.6-2.96,6.6-6.6,6.6ZM28.6,23.2c-2.98,0-5.4,2.42-5.4,5.4s2.42,5.4,5.4,5.4,5.4-2.42,5.4-5.4-2.42-5.4-5.4-5.4Z"/>
      <rect class="cls-1" x="17" y="17.51" width="1.2" height="11.18" transform="translate(-10.93 28.51) rotate(-63.43)"/>
      <rect class="cls-1" x="12.01" y="11.5" width="11.18" height="1.2" transform="translate(-3.55 9.15) rotate(-26.57)"/>
    </g>
  </g>
</svg>