<?xml version="1.0" encoding="UTF-8"?>
<svg id="Layer_2" data-name="Layer 2" xmlns="http://www.w3.org/2000/svg" viewBox="0 0 42 42">
  <defs>
    <style>
      .cls-1 {
        fill: #b50612;
      }
    </style>
  </defs>
  <g id="Layer_1-2" data-name="Layer 1">
    <g>
      <path class="cls-1" d="M21,28.6c-4.19,0-7.6-3.41-7.6-7.6s3.41-7.6,7.6-7.6,7.6,3.41,7.6,7.6-3.41,7.6-7.6,7.6ZM21,14.6c-3.53,0-6.4,2.87-6.4,6.4s2.87,6.4,6.4,6.4,6.4-2.87,6.4-6.4-2.87-6.4-6.4-6.4Z"/>
      <path class="cls-1" d="M21,35.6c-8.05,0-14.6-6.55-14.6-14.6s6.55-14.6,14.6-14.6,14.6,6.55,14.6,14.6-6.55,14.6-14.6,14.6ZM21,7.6c-7.39,0-13.4,6.01-13.4,13.4s6.01,13.4,13.4,13.4,13.4-6.01,13.4-13.4-6.01-13.4-13.4-13.4Z"/>
      <rect class="cls-1" x="20.4" width="1.2" height="7"/>
      <rect class="cls-1" x="35" y="20.4" width="7" height="1.2"/>
      <rect class="cls-1" x="20.4" y="35" width="1.2" height="7"/>
      <rect class="cls-1" y="20.4" width="7" height="1.2"/>
    </g>
  </g>
</svg>