<?xml version="1.0" encoding="UTF-8"?>
<svg id="Layer_2" data-name="Layer 2" xmlns="http://www.w3.org/2000/svg" viewBox="0 0 35.16 35.96">
  <defs>
    <style>
      .cls-1 {
        fill: #b50612;
      }
    </style>
  </defs>
  <g id="Layer_1-2" data-name="Layer 1">
    <g>
      <path class="cls-1" d="M17.58,33.18c-8.6,0-15.6-7-15.6-15.6S8.98,1.98,17.58,1.98s15.6,7,15.6,15.6-7,15.6-15.6,15.6ZM17.58,3.18c-7.94,0-14.4,6.46-14.4,14.4s6.46,14.4,14.4,14.4,14.4-6.46,14.4-14.4S25.52,3.18,17.58,3.18Z"/>
      <path class="cls-1" d="M23.25,22.08l-6-4c-.17-.11-.27-.3-.27-.5v-9h1.2v8.68l5.73,3.82-.67,1Z"/>
      <rect class="cls-1" x="27.98" y="29.88" width="1.2" height="6.4" transform="translate(-14.4 25.1) rotate(-38.66)"/>
      <rect class="cls-1" x="3.38" y="32.48" width="6.4" height="1.2" transform="translate(-23.36 17.55) rotate(-51.34)"/>
      <path class="cls-1" d="M33.64,9.43l-1-.67.61-.92c1.13-1.69.9-3.96-.53-5.4-1.44-1.44-3.71-1.66-5.4-.53l-.92.61-.67-1,.91-.61c2.17-1.44,5.07-1.16,6.91.68,1.84,1.84,2.13,4.75.68,6.91l-.61.92Z"/>
      <path class="cls-1" d="M1.53,9.43l-.61-.92C-.53,6.35-.24,3.44,1.6,1.6,3.44-.24,6.35-.53,8.51.92l.91.61-.67,1-.91-.61c-1.69-1.13-3.96-.9-5.4.53-1.44,1.44-1.66,3.71-.54,5.4l.61.92-1,.67Z"/>
    </g>
  </g>
</svg>