<?xml version="1.0" encoding="UTF-8"?>
<svg id="Layer_2" data-name="Layer 2" xmlns="http://www.w3.org/2000/svg" viewBox="0 0 27.28 35.2">
  <defs>
    <style>
      .cls-1 {
        fill: #b50612;
      }
    </style>
  </defs>
  <g id="Layer_1-2" data-name="Layer 1">
    <g>
      <path class="cls-1" d="M13.64,7.2C8.94,7.2.04,6.45.04,3.6S8.94,0,13.64,0s13.6.75,13.6,3.6-8.9,3.6-13.6,3.6ZM13.64,1.2C5.62,1.2,1.24,2.79,1.24,3.6s4.38,2.4,12.4,2.4,12.4-1.59,12.4-2.4-4.38-2.4-12.4-2.4Z"/>
      <path class="cls-1" d="M10.64,35.2c-.1,0-.19-.02-.28-.07-.19-.1-.32-.31-.32-.53v-12.61c-1.18-.56-4.79-2.56-7.42-7.09C-.48,9.55.02,3.79.04,3.54l1.19.11c0,.06-.48,5.64,2.42,10.64,2.89,4.98,7.16,6.73,7.2,6.74.23.09.38.31.38.56v11.88l4.8-3.2v-8.68c0-.25.15-.47.38-.56.04-.02,4.31-1.76,7.2-6.74,2.9-5.01,2.43-10.59,2.42-10.64l1.19-.11c.02.24.52,6.01-2.58,11.36-2.63,4.53-6.24,6.53-7.42,7.09v8.61c0,.2-.1.39-.27.5l-6,4c-.1.07-.22.1-.33.1Z"/>
    </g>
  </g>
</svg>