<?xml version="1.0" encoding="UTF-8"?>
<svg id="Layer_2" data-name="Layer 2" xmlns="http://www.w3.org/2000/svg" viewBox="0 0 32.06 33.82">
  <defs>
    <style>
      .cls-1 {
        fill: #b50612;
      }
    </style>
  </defs>
  <g id="Layer_1-2" data-name="Layer 1">
    <g>
      <path class="cls-1" d="M5.6,33.82c-1.5,0-2.9-.58-3.96-1.64-1.06-1.06-1.64-2.46-1.64-3.96s.58-2.9,1.64-3.96c1.06-1.06,2.46-1.64,3.96-1.64s2.9.58,3.96,1.64h0c1.06,1.06,1.64,2.46,1.64,3.96s-.58,2.9-1.64,3.96c-1.06,1.06-2.46,1.64-3.96,1.64ZM5.6,23.82c-1.17,0-2.28.46-3.11,1.29s-1.29,1.94-1.29,3.11.46,2.28,1.29,3.11,1.94,1.29,3.11,1.29,2.28-.46,3.11-1.29,1.29-1.94,1.29-3.11-.46-2.28-1.29-3.11h0c-.83-.83-1.94-1.29-3.11-1.29Z"/>
      <path class="cls-1" d="M5.6,11.19c-1.43,0-2.87-.55-3.96-1.64C-.54,7.37-.54,3.82,1.64,1.64c2.18-2.18,5.74-2.18,7.92,0,2.18,2.18,2.18,5.74,0,7.92h0c-1.09,1.09-2.53,1.64-3.96,1.64ZM5.6,1.2c-1.13,0-2.25.43-3.11,1.29-1.72,1.72-1.72,4.51,0,6.22,1.72,1.72,4.51,1.72,6.22,0,1.72-1.72,1.72-4.51,0-6.22-.86-.86-1.98-1.29-3.11-1.29Z"/>
      <path class="cls-1" d="M9.85,17.51c-.16,0-.32-.06-.43-.18L1.66,9.57l.85-.85,7.76,7.77-.42.42v.6Z"/>
      <path class="cls-1" d="M28.7,32.22c-2.79,0-5.52-1.13-7.48-3.09l-7.55-7.55.85-.85,7.55,7.55c1.74,1.74,4.16,2.74,6.64,2.74.62,0,1.24-.06,1.83-.18.22-.04.29-.21.31-.28.02-.07.05-.24-.1-.4l-12.83-12.83.85-.85,12.83,12.83c.42.42.58,1.03.41,1.59-.17.57-.64.99-1.22,1.11-.67.13-1.37.2-2.07.2Z"/>
      <polygon class="cls-1" points="9.28 17.22 9.27 17.22 9.27 16.02 9.28 17.22"/>
      <polygon class="cls-1" points="9.28 17.22 9.27 17.22 9.27 16.02 9.28 17.22"/>
      <polygon class="cls-1" points="9.28 17.22 9.27 17.22 9.27 16.02 9.28 17.22"/>
      <path class="cls-1" d="M2.5,25.1l-.85-.85L21.21,4.69c2.51-2.51,6.08-3.59,9.56-2.89.58.12,1.05.54,1.22,1.11s.02,1.18-.4,1.59L14.51,21.58c-.23.23-.61.23-.85,0l-3.82-3.82-7.34,7.34ZM10.69,16.91l3.39,3.39L30.74,3.65c.15-.15.12-.33.1-.4-.02-.07-.09-.23-.3-.28-3.08-.62-6.25.34-8.47,2.57l-11.37,11.37Z"/>
    </g>
  </g>
</svg>