<?xml version="1.0" encoding="UTF-8"?>
<svg id="Layer_2" data-name="Layer 2" xmlns="http://www.w3.org/2000/svg" viewBox="0 0 39.2 29.7">
  <defs>
    <style>
      .cls-1 {
        fill: #b50612;
      }
    </style>
  </defs>
  <g id="Layer_1-2" data-name="Layer 1">
    <path class="cls-1" d="M28.6,29.7H9.6c-5.29,0-9.6-4.31-9.6-9.6,0-4.74,3.42-8.72,8.04-9.47C8.53,4.63,13.52,0,19.6,0c5.29,0,9.96,3.65,11.25,8.75,4.86,1.04,8.35,5.33,8.35,10.35,0,5.84-4.76,10.6-10.6,10.6ZM19.6,1.2c-5.61,0-10.17,4.39-10.39,9.98l-.02.52-.51.06c-4.26.46-7.48,4.05-7.48,8.34,0,4.63,3.77,8.4,8.4,8.4h19c5.18,0,9.4-4.22,9.4-9.4,0-4.57-3.26-8.46-7.75-9.25l-.4-.07-.09-.39c-1.03-4.74-5.3-8.19-10.16-8.19Z"/>
  </g>
</svg>