<?xml version="1.0" encoding="UTF-8"?>
<svg id="Layer_2" data-name="Layer 2" xmlns="http://www.w3.org/2000/svg" viewBox="0 0 31.22 31.22">
  <defs>
    <style>
      .cls-1 {
        fill: #b50612;
      }
    </style>
  </defs>
  <g id="Layer_1-2" data-name="Layer 1">
    <g>
      <path class="cls-1" d="M.6,31.22c-.16,0-.31-.06-.42-.18-.15-.15-.21-.38-.15-.59l2.83-9.9c.03-.1.08-.19.15-.26L22.1,1.2c1.6-1.6,4.2-1.6,5.8,0l2.12,2.12c.77.77,1.2,1.8,1.2,2.9s-.43,2.12-1.2,2.9L10.92,28.21c-.07.07-.16.12-.26.15L.77,31.19c-.05.02-.11.02-.17.02ZM3.96,21.03l-2.49,8.71,8.71-2.49L29.17,8.27c.55-.55.85-1.28.85-2.05s-.3-1.5-.85-2.05l-2.12-2.12c-1.13-1.13-2.97-1.13-4.1,0L3.96,21.03Z"/>
      <rect class="cls-1" x="22.63" y="2.99" width="1.2" height="10" transform="translate(1.15 18.76) rotate(-45)"/>
    </g>
  </g>
</svg>