<?xml version="1.0" encoding="UTF-8"?>
<svg id="Layer_2" data-name="Layer 2" xmlns="http://www.w3.org/2000/svg" viewBox="0 0 32.97 37.2">
  <defs>
    <style>
      .cls-1 {
        fill: #b50612;
      }
    </style>
  </defs>
  <g id="Layer_1-2" data-name="Layer 1">
    <g>
      <path class="cls-1" d="M16.49,37.2c-4.29,0-6.6-9.58-6.6-18.6S12.21,0,16.49,0s6.6,9.58,6.6,18.6-2.31,18.6-6.6,18.6ZM16.49,1.2c-2.55,0-5.4,7.15-5.4,17.4s2.85,17.4,5.4,17.4,5.4-7.15,5.4-17.4S19.05,1.2,16.49,1.2Z"/>
      <path class="cls-1" d="M28.52,29.62c-4.02,0-10.05-2.26-15.32-5.31-4.22-2.44-7.87-5.28-10.29-8.01C.34,13.42-.56,10.93.39,9.3c.94-1.63,3.54-2.1,7.33-1.33,3.57.73,7.86,2.47,12.08,4.91,4.22,2.44,7.87,5.28,10.29,8.01,2.56,2.89,3.46,5.38,2.51,7.01-.69,1.2-2.16,1.72-4.08,1.72ZM4.49,8.81c-1.57,0-2.66.37-3.07,1.09-.64,1.11.24,3.21,2.37,5.61,2.34,2.63,5.89,5.39,9.99,7.76,8.88,5.13,16.49,6.23,17.77,4.02.64-1.11-.24-3.21-2.37-5.61-2.34-2.63-5.89-5.39-10-7.76-4.11-2.37-8.27-4.07-11.72-4.77-1.11-.23-2.12-.34-2.98-.34Z"/>
      <path class="cls-1" d="M4.47,29.62c-1.93,0-3.39-.52-4.08-1.72-2.14-3.71,5-10.51,12.81-15.02,4.22-2.44,8.51-4.18,12.08-4.91,3.78-.78,6.39-.3,7.33,1.33.94,1.63.05,4.12-2.51,7.01-2.42,2.73-6.08,5.57-10.29,8.01h0c-5.28,3.05-11.31,5.31-15.32,5.31ZM28.49,8.81c-.86,0-1.86.11-2.98.34-3.45.71-7.61,2.4-11.72,4.77C4.91,19.05.15,25.09,1.42,27.3c1.28,2.21,8.89,1.1,17.77-4.02h0c4.11-2.37,7.66-5.13,10-7.76,2.13-2.4,3.02-4.5,2.37-5.61-.42-.72-1.5-1.09-3.07-1.09Z"/>
    </g>
  </g>
</svg>