<?xml version="1.0" encoding="UTF-8"?>
<svg id="Layer_2" data-name="Layer 2" xmlns="http://www.w3.org/2000/svg" viewBox="0 0 30.7 35.2">
  <defs>
    <style>
      .cls-1 {
        fill: #b50612;
      }
    </style>
  </defs>
  <g id="Layer_1-2" data-name="Layer 1">
    <g>
      <path class="cls-1" d="M26.1,31.2H4.61c-.23,0-.44-.13-.54-.34-.1-.21-.07-.45.07-.63l8.16-10.34c.11-.14.29-.23.47-.23h5.16c.18,0,.36.08.47.23l8.17,10.34c.14.18.17.43.07.63-.1.21-.31.34-.54.34ZM5.84,30h19.02l-7.22-9.14h-4.58l-7.22,9.14Z"/>
      <path class="cls-1" d="M26.1,35.2H4.61c-1.78,0-3.36-.99-4.14-2.59-.78-1.6-.57-3.46.53-4.86l8.16-10.34c1.03-1.3,1.59-2.93,1.59-4.58v-7.69c-1.15-.27-2-1.3-2-2.53,0-1.43,1.17-2.6,2.6-2.6h8c1.43,0,2.6,1.17,2.6,2.6,0,1.23-.85,2.26-2,2.53v7.69c0,1.66.57,3.29,1.59,4.58l8.16,10.34c1.1,1.4,1.3,3.26.53,4.86-.78,1.6-2.36,2.59-4.14,2.59ZM11.35,1.2c-.77,0-1.4.63-1.4,1.4s.63,1.4,1.4,1.4c.33,0,.6.27.6.6v8.22c0,1.92-.66,3.82-1.85,5.33L1.94,28.49c-.83,1.05-.97,2.39-.39,3.59.58,1.2,1.73,1.92,3.06,1.92h21.49c1.33,0,2.48-.72,3.06-1.92.58-1.2.44-2.54-.39-3.59l-8.16-10.34c-1.19-1.51-1.85-3.4-1.85-5.33V4.6c0-.33.27-.6.6-.6.77,0,1.4-.63,1.4-1.4s-.63-1.4-1.4-1.4h-8Z"/>
    </g>
  </g>
</svg>