<?xml version="1.0" encoding="UTF-8"?>
<svg id="Layer_2" data-name="Layer 2" xmlns="http://www.w3.org/2000/svg" viewBox="0 0 35.2 35.2">
  <defs>
    <style>
      .cls-1 {
        fill: #b50612;
      }
    </style>
  </defs>
  <g id="Layer_1-2" data-name="Layer 1">
    <g>
      <path class="cls-1" d="M17.6,35.2C7.9,35.2,0,27.3,0,17.6S7.9,0,17.6,0s17.6,7.89,17.6,17.6-7.9,17.6-17.6,17.6ZM17.6,1.2C8.56,1.2,1.2,8.56,1.2,17.6s7.36,16.4,16.4,16.4,16.4-7.36,16.4-16.4S26.64,1.2,17.6,1.2Z"/>
      <path class="cls-1" d="M17.6,35.2c-5.38,0-9.6-7.73-9.6-17.6S12.22,0,17.6,0s9.6,7.73,9.6,17.6-4.22,17.6-9.6,17.6ZM17.6,1.2c-4.63,0-8.4,7.36-8.4,16.4s3.77,16.4,8.4,16.4,8.4-7.36,8.4-16.4S22.23,1.2,17.6,1.2Z"/>
      <path class="cls-1" d="M17.6,11.2c-5.37,0-10.5-2.2-12.48-5.34l1.02-.64c1.74,2.77,6.56,4.78,11.46,4.78s9.72-2.01,11.46-4.78l1.02.64c-1.98,3.14-7.11,5.34-12.48,5.34Z"/>
      <path class="cls-1" d="M29.06,29.98c-1.74-2.77-6.56-4.78-11.46-4.78s-9.72,2.01-11.46,4.78l-1.02-.64c1.98-3.14,7.11-5.34,12.48-5.34s10.5,2.2,12.48,5.34l-1.02.64Z"/>
      <rect class="cls-1" x=".6" y="17" width="34" height="1.2"/>
      <rect class="cls-1" x="17" y=".6" width="1.2" height="34"/>
    </g>
  </g>
</svg>