<?xml version="1.0" encoding="UTF-8"?>
<svg id="Layer_2" data-name="Layer 2" xmlns="http://www.w3.org/2000/svg" viewBox="0 0 38.24 36.2">
  <defs>
    <style>
      .cls-1 {
        fill: #b50612;
      }
    </style>
  </defs>
  <g id="Layer_1-2" data-name="Layer 1">
    <g>
      <path class="cls-1" d="M34.79,36.2c-1.52,0-2.97-.58-4.05-1.62-1.88,1.06-4.01,1.62-6.19,1.62-6.95,0-12.6-5.65-12.6-12.6s5.65-12.6,12.6-12.6,12.6,5.65,12.6,12.6c0,2.44-.69,4.79-2,6.81.33,1.62,1.34,3.01,2.78,3.83.18.1.3.29.3.5,0,.21-.1.41-.27.52-.95.61-2.05.94-3.18.94ZM30.85,33.22c.17,0,.33.07.45.2,1.25,1.43,3.4,1.94,5.17,1.26-1.34-1.06-2.25-2.58-2.53-4.31-.03-.15,0-.31.09-.43,1.26-1.87,1.93-4.07,1.93-6.35,0-6.29-5.11-11.4-11.4-11.4s-11.4,5.11-11.4,11.4,5.11,11.4,11.4,11.4c2.12,0,4.19-.58,5.97-1.69.1-.06.21-.09.31-.09Z"/>
      <path class="cls-1" d="M3.22,23.2c-1.06,0-2.08-.3-2.95-.87-.18-.11-.28-.31-.27-.52,0-.21.12-.4.3-.5,1.31-.74,2.22-1.99,2.52-3.45-1.19-1.86-1.83-4.02-1.83-6.26C1,5.2,6.2,0,12.6,0c5.21,0,9.8,3.5,11.18,8.51l-1.16.32c-1.23-4.49-5.35-7.63-10.02-7.63C6.87,1.2,2.2,5.87,2.2,11.6c0,2.08.61,4.09,1.76,5.79.09.13.12.28.09.43-.26,1.56-1.07,2.95-2.27,3.92,1.56.57,3.47.1,4.6-1.18.19-.22.52-.27.77-.11.81.5,1.7.89,2.65,1.15l-.32,1.16c-.89-.25-1.74-.6-2.54-1.04-1,.94-2.33,1.47-3.71,1.47Z"/>
    </g>
  </g>
</svg>