<?xml version="1.0" encoding="UTF-8"?>
<svg id="Layer_2" data-name="Layer 2" xmlns="http://www.w3.org/2000/svg" viewBox="0 0 35.6 34.66">
  <defs>
    <style>
      .cls-1 {
        fill: #b50612;
      }
    </style>
  </defs>
  <g id="Layer_1-2" data-name="Layer 1">
    <g>
      <path class="cls-1" d="M18.59,34.66c-.39,0-.77-.15-1.07-.42l-9.75-8.94c-.26-.24-.6-.37-.95-.37h-3.22c-1.98,0-3.6-1.61-3.6-3.6v-8c0-1.99,1.62-3.6,3.6-3.6h3.22c.35,0,.69-.13.95-.37L17.52.42c.47-.43,1.14-.54,1.73-.29.59.26.96.82.96,1.46v31.45c0,.64-.37,1.21-.96,1.46-.21.09-.43.14-.65.14ZM3.6,10.93c-1.32,0-2.4,1.08-2.4,2.4v8c0,1.32,1.08,2.4,2.4,2.4h3.22c.65,0,1.28.24,1.76.68l9.75,8.94c.17.16.36.1.43.07.07-.03.24-.13.24-.37V1.6c0-.24-.17-.33-.24-.37-.07-.03-.26-.09-.43.07l-9.75,8.94c-.48.44-1.1.68-1.76.68h-3.22Z"/>
      <rect class="cls-1" x="23.6" y="16.73" width="12" height="1.2"/>
      <rect class="cls-1" x="29" y="11.33" width="1.2" height="12"/>
    </g>
  </g>
</svg>