<?xml version="1.0" encoding="UTF-8"?>
<svg id="Layer_2" data-name="Layer 2" xmlns="http://www.w3.org/2000/svg" viewBox="0 0 21.2 35.2">
  <defs>
    <style>
      .cls-1 {
        fill: #b50612;
      }
    </style>
  </defs>
  <g id="Layer_1-2" data-name="Layer 1">
    <g>
      <path class="cls-1" d="M16.6,35.2H4.6c-2.54,0-4.6-2.06-4.6-4.6V4.6C0,2.06,2.06,0,4.6,0h12c2.54,0,4.6,2.06,4.6,4.6v26c0,2.54-2.06,4.6-4.6,4.6ZM4.6,1.2c-1.88,0-3.4,1.53-3.4,3.4v26c0,1.88,1.52,3.4,3.4,3.4h12c1.88,0,3.4-1.53,3.4-3.4V4.6c0-1.88-1.52-3.4-3.4-3.4H4.6Z"/>
      <path class="cls-1" d="M10.6,32.2c-.88,0-1.6-.72-1.6-1.6s.72-1.6,1.6-1.6,1.6.72,1.6,1.6-.72,1.6-1.6,1.6ZM10.6,30.2c-.22,0-.4.18-.4.4s.18.4.4.4.4-.18.4-.4-.18-.4-.4-.4Z"/>
      <path class="cls-1" d="M12.6,4.2h-4c-.33,0-.6-.27-.6-.6s.27-.6.6-.6h4c.33,0,.6.27.6.6s-.27.6-.6.6Z"/>
    </g>
  </g>
</svg>