<?xml version="1.0" encoding="UTF-8"?>
<svg id="Layer_2" data-name="Layer 2" xmlns="http://www.w3.org/2000/svg" viewBox="0 0 35.2 35.2">
  <defs>
    <style>
      .cls-1 {
        fill: #b50612;
      }
    </style>
  </defs>
  <g id="Layer_1-2" data-name="Layer 1">
    <g>
      <path class="cls-1" d="M15.6,23.2c-.15,0-.31-.06-.42-.18l-5-5,.85-.85,4.58,4.58,9.58-9.58.85.85-10,10c-.12.12-.27.18-.42.18Z"/>
      <path class="cls-1" d="M26.6,35.2H8.6c-4.74,0-8.6-3.86-8.6-8.6V8.6C0,3.86,3.86,0,8.6,0h18c4.74,0,8.6,3.86,8.6,8.6v18c0,4.74-3.86,8.6-8.6,8.6ZM8.6,1.2C4.52,1.2,1.2,4.52,1.2,8.6v18c0,4.08,3.32,7.4,7.4,7.4h18c4.08,0,7.4-3.32,7.4-7.4V8.6c0-4.08-3.32-7.4-7.4-7.4H8.6Z"/>
    </g>
  </g>
</svg>