<?xml version="1.0" encoding="UTF-8"?>
<svg id="Layer_2" data-name="Layer 2" xmlns="http://www.w3.org/2000/svg" viewBox="0 0 27.66 35.2">
  <defs>
    <style>
      .cls-1 {
        fill: #b50612;
      }
    </style>
  </defs>
  <g id="Layer_1-2" data-name="Layer 1">
    <g>
      <path class="cls-1" d="M7.6,7.2c-1.98,0-3.6-1.61-3.6-3.6S5.62,0,7.6,0s3.6,1.61,3.6,3.6-1.62,3.6-3.6,3.6ZM7.6,1.2c-1.32,0-2.4,1.08-2.4,2.4s1.08,2.4,2.4,2.4,2.4-1.08,2.4-2.4-1.08-2.4-2.4-2.4Z"/>
      <path class="cls-1" d="M24.91,32.16c-.91,0-1.78-.45-2.3-1.25l-4.22-6.53c-.07-.11-.2-.18-.34-.18h-7.14c-.76,0-1.42-.54-1.57-1.29l-1.94-9.72c-.29-1.44.5-2.85,1.87-3.37,1.48-.56,3.14.14,3.77,1.59l2.38,5.45c.05.12.17.21.3.23l6.82,1.2c.93.16,1.69.82,2,1.71l2.96,8.51c.47,1.35-.19,2.85-1.51,3.42-.36.15-.73.22-1.09.22ZM10.33,10.84c-.21,0-.42.04-.62.11-.82.31-1.29,1.15-1.12,2.01l1.94,9.72c.04.19.2.32.39.32h7.14c.54,0,1.05.27,1.34.73l4.22,6.53c.41.63,1.21.88,1.9.58.75-.32,1.12-1.16.85-1.92l-2.96-8.51c-.17-.48-.58-.83-1.08-.92l-6.82-1.2c-.53-.09-.97-.44-1.19-.93l-2.38-5.45c-.29-.66-.94-1.06-1.63-1.06Z"/>
      <path class="cls-1" d="M9.1,35.2c-5.02,0-9.1-4.08-9.1-9.1,0-3.75,2.25-7.07,5.74-8.46l.44,1.12c-3.03,1.2-4.98,4.09-4.98,7.34,0,4.36,3.54,7.9,7.9,7.9,3.92,0,7.2-2.81,7.81-6.67l1.19.19c-.69,4.45-4.48,7.69-8.99,7.69Z"/>
    </g>
  </g>
</svg>