<?xml version="1.0" encoding="UTF-8"?>
<svg id="Layer_2" data-name="Layer 2" xmlns="http://www.w3.org/2000/svg" viewBox="0 0 33.16 34.57">
  <defs>
    <style>
      .cls-1 {
        fill: #b50612;
      }
    </style>
  </defs>
  <g id="Layer_1-2" data-name="Layer 1">
    <g>
      <path class="cls-1" d="M18.55,34.57c-.39,0-.77-.15-1.07-.42l-9.72-8.91c-.26-.24-.6-.37-.95-.37h-3.2c-1.98,0-3.6-1.61-3.6-3.6v-7.96c0-1.99,1.62-3.6,3.6-3.6h3.2c.35,0,.69-.13.95-.37L17.47.42c.47-.43,1.13-.54,1.72-.28.59.26.95.82.95,1.46v31.37c0,.64-.37,1.2-.95,1.46-.21.09-.43.14-.65.14ZM3.6,10.9c-1.32,0-2.4,1.08-2.4,2.4v7.96c0,1.32,1.08,2.4,2.4,2.4h3.2c.65,0,1.28.24,1.76.68l9.72,8.91c.17.16.36.1.43.07.07-.03.24-.13.24-.36V1.6c0-.23-.17-.33-.24-.36-.07-.03-.26-.09-.43.07l-9.72,8.91c-.48.44-1.1.68-1.76.68h-3.2Z"/>
      <path class="cls-1" d="M23.54,25.87c-.14,0-.28-.05-.39-.15-.25-.22-.27-.6-.06-.85,3.78-4.32,3.78-10.84,0-15.17-.22-.25-.19-.63.06-.85.25-.22.63-.19.85.06,4.18,4.77,4.18,11.97,0,16.75-.12.13-.28.2-.45.2Z"/>
      <path class="cls-1" d="M27.53,30.85c-.15,0-.29-.05-.41-.16-.24-.22-.26-.6-.03-.85,6.5-7.04,6.5-18.08,0-25.12-.22-.24-.21-.62.03-.85.24-.23.62-.21.85.03,6.92,7.5,6.92,19.25,0,26.75-.12.13-.28.19-.44.19Z"/>
    </g>
  </g>
</svg>