<?xml version="1.0" encoding="UTF-8"?>
<svg id="Layer_2" data-name="Layer 2" xmlns="http://www.w3.org/2000/svg" viewBox="0 0 34.43 34.43">
  <defs>
    <style>
      .cls-1 {
        fill: #b50612;
      }
    </style>
  </defs>
  <g id="Layer_1-2" data-name="Layer 1">
    <path class="cls-1" d="M20.4,34.43s-.02,0-.04,0c-.26-.01-.48-.19-.54-.44l-4.15-15.23L.44,14.61c-.25-.07-.43-.29-.44-.54s.14-.5.37-.59L33.61.04c.22-.09.48-.04.65.13.17.17.22.43.13.65l-13.44,33.23c-.09.23-.31.38-.56.38ZM2.47,13.92l13.84,3.77c.21.06.37.22.42.42l3.77,13.84L32.75,1.69,2.47,13.92Z"/>
  </g>
</svg>