<?xml version="1.0" encoding="UTF-8"?>
<svg id="Layer_2" data-name="Layer 2" xmlns="http://www.w3.org/2000/svg" viewBox="0 0 35.2 35.25">
  <defs>
    <style>
      .cls-1 {
        fill: #b50612;
      }
    </style>
  </defs>
  <g id="Layer_1-2" data-name="Layer 1">
    <g>
      <path class="cls-1" d="M16.1,31.21c-7.5,0-13.6-6.1-13.6-13.6C2.5,8.74,10,3.01,21.6,3.01c6.84,0,9.24-1.57,10.53-2.42.57-.37,1.02-.67,1.57-.57,1.27.22,1.5,2.3,1.5,6.59,0,14.48-7.85,24.6-19.1,24.6ZM33.48,1.2c-.12.02-.46.24-.68.39-1.4.91-3.99,2.62-11.19,2.62C10.73,4.21,3.7,9.47,3.7,17.61c0,6.84,5.56,12.4,12.4,12.4,10.54,0,17.9-9.62,17.9-23.4,0-1.22,0-4.91-.52-5.41Z"/>
      <path class="cls-1" d="M.6,35.25c-.09,0-.18-.02-.26-.06-.3-.14-.42-.5-.28-.8,2.73-5.68,9.48-13.09,15.71-17.24.28-.18.65-.11.83.17.18.28.11.65-.17.83-6.07,4.04-12.65,11.25-15.29,16.76-.1.21-.32.34-.54.34Z"/>
    </g>
  </g>
</svg>