<?xml version="1.0" encoding="UTF-8"?>
<svg id="Layer_2" data-name="Layer 2" xmlns="http://www.w3.org/2000/svg" viewBox="0 0 35.2 35.2">
  <defs>
    <style>
      .cls-1 {
        fill: #b50612;
      }
    </style>
  </defs>
  <g id="Layer_1-2" data-name="Layer 1">
    <path class="cls-1" d="M4.6,35.2c-1.23,0-2.38-.48-3.25-1.35-.87-.87-1.35-2.02-1.35-3.25s.48-2.38,1.35-3.25l11.17-11.16h0c1.17-1.17,1.75-2.76,1.56-4.27-.41-3.27.69-6.48,3.03-8.81C20.22-.02,25-.88,29,.95c.18.08.31.25.34.44.04.19-.03.39-.17.53l-5.98,5.99c-1.15,1.15-1.26,3-.25,4.13.54.6,1.28.94,2.08.96.81.05,1.56-.28,2.13-.85l6.12-6.12c.14-.14.33-.2.53-.17.19.04.36.16.44.34,1.83,4,.97,8.79-2.15,11.89-2.32,2.33-5.53,3.43-8.81,3.03-1.51-.19-3.11.4-4.27,1.56l-11.16,11.17c-.87.87-2.02,1.35-3.25,1.35ZM13.37,17.03L2.2,28.19c-1.33,1.33-1.33,3.48,0,4.81,1.28,1.28,3.52,1.28,4.81,0l11.16-11.17c1.43-1.43,3.4-2.14,5.27-1.91,2.9.37,5.75-.62,7.81-2.68,2.56-2.55,3.41-6.36,2.24-9.73l-5.48,5.48c-.8.8-1.86,1.25-3.01,1.2-1.14-.03-2.18-.51-2.94-1.36-1.43-1.59-1.3-4.18.29-5.78l5.34-5.34c-3.37-1.17-7.18-.32-9.73,2.24-2.07,2.06-3.05,4.91-2.69,7.81.23,1.87-.48,3.84-1.9,5.27h0s0,0,0,0h0Z"/>
  </g>
</svg>