<?xml version="1.0" encoding="UTF-8"?>
<svg id="Layer_2" data-name="Layer 2" xmlns="http://www.w3.org/2000/svg" viewBox="0 0 31.2 36.2">
  <defs>
    <style>
      .cls-1 {
        fill: #b50612;
      }
    </style>
  </defs>
  <g id="Layer_1-2" data-name="Layer 1">
    <g>
      <path class="cls-1" d="M26.6,36.2H4.6c-2.54,0-4.6-2.06-4.6-4.6V4.6C0,2.06,2.06,0,4.6,0h12.22c.65,0,1.28.24,1.76.69l11.78,10.88c.53.49.84,1.19.84,1.91v18.12c0,2.54-2.06,4.6-4.6,4.6ZM4.6,1.2c-1.88,0-3.4,1.53-3.4,3.4v27c0,1.88,1.52,3.4,3.4,3.4h22c1.88,0,3.4-1.53,3.4-3.4V13.47c0-.39-.16-.76-.45-1.03L17.77,1.57c-.26-.24-.6-.37-.95-.37H4.6Z"/>
      <path class="cls-1" d="M30.1,13.2h-8.5c-2.54,0-4.6-2.06-4.6-4.6V.6h1.2v8c0,1.88,1.52,3.4,3.4,3.4h8.5v1.2Z"/>
    </g>
  </g>
</svg>