<?xml version="1.0" encoding="UTF-8"?>
<svg id="Layer_2" data-name="Layer 2" xmlns="http://www.w3.org/2000/svg" viewBox="0 0 33.2 33.2">
  <defs>
    <style>
      .cls-1 {
        fill: #b50612;
      }
    </style>
  </defs>
  <g id="Layer_1-2" data-name="Layer 1">
    <g>
      <path class="cls-1" d="M10.6,14.2H3.6c-1.98,0-3.6-1.61-3.6-3.6V3.6C0,1.61,1.62,0,3.6,0h7c1.98,0,3.6,1.61,3.6,3.6v7c0,1.99-1.62,3.6-3.6,3.6ZM3.6,1.2c-1.32,0-2.4,1.08-2.4,2.4v7c0,1.32,1.08,2.4,2.4,2.4h7c1.32,0,2.4-1.08,2.4-2.4V3.6c0-1.32-1.08-2.4-2.4-2.4H3.6Z"/>
      <path class="cls-1" d="M29.6,14.2h-7c-1.98,0-3.6-1.61-3.6-3.6V3.6c0-1.99,1.62-3.6,3.6-3.6h7c1.98,0,3.6,1.61,3.6,3.6v7c0,1.99-1.62,3.6-3.6,3.6ZM22.6,1.2c-1.32,0-2.4,1.08-2.4,2.4v7c0,1.32,1.08,2.4,2.4,2.4h7c1.32,0,2.4-1.08,2.4-2.4V3.6c0-1.32-1.08-2.4-2.4-2.4h-7Z"/>
      <path class="cls-1" d="M10.6,33.2H3.6c-1.98,0-3.6-1.61-3.6-3.6v-7c0-1.99,1.62-3.6,3.6-3.6h7c1.98,0,3.6,1.61,3.6,3.6v7c0,1.99-1.62,3.6-3.6,3.6ZM3.6,20.2c-1.32,0-2.4,1.08-2.4,2.4v7c0,1.32,1.08,2.4,2.4,2.4h7c1.32,0,2.4-1.08,2.4-2.4v-7c0-1.32-1.08-2.4-2.4-2.4H3.6Z"/>
      <path class="cls-1" d="M29.6,33.2h-7c-1.98,0-3.6-1.61-3.6-3.6v-7c0-1.99,1.62-3.6,3.6-3.6h7c1.98,0,3.6,1.61,3.6,3.6v7c0,1.99-1.62,3.6-3.6,3.6ZM22.6,20.2c-1.32,0-2.4,1.08-2.4,2.4v7c0,1.32,1.08,2.4,2.4,2.4h7c1.32,0,2.4-1.08,2.4-2.4v-7c0-1.32-1.08-2.4-2.4-2.4h-7Z"/>
    </g>
  </g>
</svg>