<?xml version="1.0" encoding="UTF-8"?>
<svg id="Layer_2" data-name="Layer 2" xmlns="http://www.w3.org/2000/svg" viewBox="0 0 27.2 35.2">
  <defs>
    <style>
      .cls-1 {
        fill: #b50612;
      }
    </style>
  </defs>
  <g id="Layer_1-2" data-name="Layer 1">
    <path class="cls-1" d="M8.6,35.2c-.09,0-.18-.02-.26-.06-.23-.11-.37-.36-.34-.62l1.91-14.32H.6c-.24,0-.46-.14-.55-.36-.09-.22-.05-.48.12-.65L18.16.19c.18-.19.46-.24.69-.13.23.11.37.36.34.62l-1.91,14.32h9.31c.24,0,.46.14.55.36.09.22.05.48-.12.65l-18,19c-.12.12-.27.19-.44.19ZM2,19h8.6c.17,0,.34.07.45.2.11.13.17.3.14.47l-1.75,13.16,15.77-16.64h-8.6c-.17,0-.34-.07-.45-.2-.11-.13-.17-.3-.14-.47l1.75-13.16L2,19Z"/>
  </g>
</svg>