<?xml version="1.0" encoding="UTF-8"?>
<svg id="Layer_2" data-name="Layer 2" xmlns="http://www.w3.org/2000/svg" viewBox="0 0 32 27.2">
  <defs>
    <style>
      .cls-1 {
        fill: #b50612;
      }
    </style>
  </defs>
  <g id="Layer_1-2" data-name="Layer 1">
    <g>
      <rect class="cls-1" x="10" y="3" width="22" height="1.2"/>
      <rect class="cls-1" y="3" width="4" height="1.2"/>
      <rect class="cls-1" x="28" y="13" width="4" height="1.2"/>
      <rect class="cls-1" y="13" width="22" height="1.2"/>
      <rect class="cls-1" x="16" y="23" width="16" height="1.2"/>
      <rect class="cls-1" y="23" width="10" height="1.2"/>
      <path class="cls-1" d="M7,7.2c-1.98,0-3.6-1.61-3.6-3.6S5.02,0,7,0s3.6,1.61,3.6,3.6-1.62,3.6-3.6,3.6ZM7,1.2c-1.32,0-2.4,1.08-2.4,2.4s1.08,2.4,2.4,2.4,2.4-1.08,2.4-2.4-1.08-2.4-2.4-2.4Z"/>
      <path class="cls-1" d="M25,17.2c-1.98,0-3.6-1.61-3.6-3.6s1.62-3.6,3.6-3.6,3.6,1.61,3.6,3.6-1.62,3.6-3.6,3.6ZM25,11.2c-1.32,0-2.4,1.08-2.4,2.4s1.08,2.4,2.4,2.4,2.4-1.08,2.4-2.4-1.08-2.4-2.4-2.4Z"/>
      <path class="cls-1" d="M13,27.2c-1.98,0-3.6-1.61-3.6-3.6s1.62-3.6,3.6-3.6,3.6,1.61,3.6,3.6-1.62,3.6-3.6,3.6ZM13,21.2c-1.32,0-2.4,1.08-2.4,2.4s1.08,2.4,2.4,2.4,2.4-1.08,2.4-2.4-1.08-2.4-2.4-2.4Z"/>
    </g>
  </g>
</svg>