<?xml version="1.0" encoding="UTF-8"?>
<svg id="Layer_2" data-name="Layer 2" xmlns="http://www.w3.org/2000/svg" viewBox="0 0 33.2 31.2">
  <defs>
    <style>
      .cls-1 {
        fill: #b50612;
      }
    </style>
  </defs>
  <g id="Layer_1-2" data-name="Layer 1">
    <g>
      <path class="cls-1" d="M29.6,31.2H3.6c-1.98,0-3.6-1.61-3.6-3.6V3.6C0,1.61,1.62,0,3.6,0h26c1.98,0,3.6,1.61,3.6,3.6v24c0,1.99-1.62,3.6-3.6,3.6ZM3.6,1.2c-1.32,0-2.4,1.08-2.4,2.4v24c0,1.32,1.08,2.4,2.4,2.4h26c1.32,0,2.4-1.08,2.4-2.4V3.6c0-1.32-1.08-2.4-2.4-2.4H3.6Z"/>
      <rect class="cls-1" x="8.1" y="15" width="17" height="1.2"/>
      <rect class="cls-1" x="7" y=".6" width="1.2" height="30"/>
      <rect class="cls-1" x="25" y="1.1" width="1.2" height="30"/>
      <path class="cls-1" d="M7.6,19.2H.6c-.33,0-.6-.27-.6-.6v-6c0-.33.27-.6.6-.6h7c.33,0,.6.27.6.6v6c0,.33-.27.6-.6.6ZM1.2,18h5.8v-4.8H1.2v4.8Z"/>
      <path class="cls-1" d="M7.6,25.2H.6c-.33,0-.6-.27-.6-.6v-6c0-.33.27-.6.6-.6h7c.33,0,.6.27.6.6v6c0,.33-.27.6-.6.6ZM1.2,24h5.8v-4.8H1.2v4.8Z"/>
      <path class="cls-1" d="M7.6,13.2H.6c-.33,0-.6-.27-.6-.6v-6c0-.33.27-.6.6-.6h7c.33,0,.6.27.6.6v6c0,.33-.27.6-.6.6ZM1.2,12h5.8v-4.8H1.2v4.8Z"/>
      <path class="cls-1" d="M32.6,19.2h-7c-.33,0-.6-.27-.6-.6v-6c0-.33.27-.6.6-.6h7c.33,0,.6.27.6.6v6c0,.33-.27.6-.6.6ZM26.2,18h5.8v-4.8h-5.8v4.8Z"/>
      <path class="cls-1" d="M32.6,25.2h-7c-.33,0-.6-.27-.6-.6v-6c0-.33.27-.6.6-.6h7c.33,0,.6.27.6.6v6c0,.33-.27.6-.6.6ZM26.2,24h5.8v-4.8h-5.8v4.8Z"/>
      <path class="cls-1" d="M32.6,13.2h-7c-.33,0-.6-.27-.6-.6v-6c0-.33.27-.6.6-.6h7c.33,0,.6.27.6.6v6c0,.33-.27.6-.6.6ZM26.2,12h5.8v-4.8h-5.8v4.8Z"/>
    </g>
  </g>
</svg>