<?xml version="1.0" encoding="UTF-8"?>
<svg id="Layer_2" data-name="Layer 2" xmlns="http://www.w3.org/2000/svg" viewBox="0 0 35.2 35.2">
  <defs>
    <style>
      .cls-1 {
        fill: #b50612;
      }
    </style>
  </defs>
  <g id="Layer_1-2" data-name="Layer 1">
    <g>
      <path class="cls-1" d="M30.6,35.2H4.6c-2.54,0-4.6-2.06-4.6-4.6V4.6C0,2.06,2.06,0,4.6,0h26c2.54,0,4.6,2.06,4.6,4.6v26c0,2.54-2.06,4.6-4.6,4.6ZM4.6,1.2c-1.88,0-3.4,1.53-3.4,3.4v26c0,1.88,1.52,3.4,3.4,3.4h26c1.88,0,3.4-1.53,3.4-3.4V4.6c0-1.88-1.52-3.4-3.4-3.4H4.6Z"/>
      <rect class="cls-1" x="5.6" y="7" width="24" height="1.2"/>
      <rect class="cls-1" x="5.6" y="14" width="24" height="1.2"/>
      <rect class="cls-1" x="5.6" y="20" width="24" height="1.2"/>
      <rect class="cls-1" x="5.6" y="27" width="24" height="1.2"/>
    </g>
  </g>
</svg>