<?xml version="1.0" encoding="UTF-8"?>
<svg id="Layer_2" data-name="Layer 2" xmlns="http://www.w3.org/2000/svg" viewBox="0 0 37.2 35.51">
  <defs>
    <style>
      .cls-1 {
        fill: #b50612;
      }
    </style>
  </defs>
  <g id="Layer_1-2" data-name="Layer 1">
    <g>
      <path class="cls-1" d="M16.61,35.51c-.39,0-.79-.07-1.18-.2l-13-4.45c-1.46-.5-2.43-1.87-2.43-3.41V3.6C0,1.61,1.62,0,3.6,0h20c1.98,0,3.6,1.61,3.6,3.6v23c0,1.99-1.62,3.6-3.6,3.6h-3.4v1.7c0,1.18-.55,2.24-1.51,2.93-.62.45-1.35.68-2.08.68ZM2.08,1.74c-.54.44-.88,1.11-.88,1.86v23.86c0,1.03.65,1.94,1.62,2.27l13,4.45c.74.25,1.53.14,2.17-.32.64-.46,1-1.17,1-1.95V10.13c0-.99-.59-1.86-1.51-2.23L2.08,1.74ZM20.2,29h3.4c1.32,0,2.4-1.08,2.4-2.4V3.6c0-1.32-1.08-2.4-2.4-2.4H3.97l13.97,5.59c1.38.55,2.26,1.86,2.26,3.34v18.87Z"/>
      <path class="cls-1" d="M32.52,20.52l-.85-.85,4.08-4.08-4.08-4.08.85-.85,4.5,4.5c.23.23.23.61,0,.85l-4.5,4.5Z"/>
      <rect class="cls-1" x="27.1" y="15" width="9" height="1.2"/>
    </g>
  </g>
</svg>