<?xml version="1.0" encoding="UTF-8"?>
<svg id="Layer_2" data-name="Layer 2" xmlns="http://www.w3.org/2000/svg" viewBox="0 0 36.74 35.2">
  <defs>
    <style>
      .cls-1 {
        fill: #b50612;
      }
    </style>
  </defs>
  <g id="Layer_1-2" data-name="Layer 1">
    <path class="cls-1" d="M32.1,35.2c-2.15,0-4.2-.85-5.7-2.36-2.66,1.54-5.7,2.36-8.8,2.36C7.9,35.2,0,27.3,0,17.6S7.9,0,17.6,0s17.6,7.89,17.6,17.6c0,3.44-.98,6.75-2.85,9.6.47,2.41,1.94,4.47,4.08,5.69.18.1.3.29.3.5,0,.21-.1.41-.27.52-1.3.84-2.81,1.29-4.37,1.29ZM26.51,31.48c.17,0,.33.07.45.2,1.29,1.47,3.16,2.32,5.14,2.32,1,0,1.97-.22,2.87-.63-2.04-1.47-3.42-3.68-3.84-6.2-.03-.15,0-.31.09-.43,1.82-2.7,2.78-5.86,2.78-9.13,0-9.04-7.36-16.4-16.4-16.4S1.2,8.56,1.2,17.6s7.36,16.4,16.4,16.4c3.05,0,6.02-.84,8.59-2.43.1-.06.21-.09.31-.09Z"/>
  </g>
</svg>