<?xml version="1.0" encoding="UTF-8"?>
<svg id="Layer_2" data-name="Layer 2" xmlns="http://www.w3.org/2000/svg" viewBox="0 0 35.2 35.2">
  <defs>
    <style>
      .cls-1 {
        fill: #b50612;
      }
    </style>
  </defs>
  <g id="Layer_1-2" data-name="Layer 1">
    <g>
      <path class="cls-1" d="M28.6,35.2H4.6c-2.54,0-4.6-2.06-4.6-4.6V6.6C0,4.06,2.06,2,4.6,2h14v1.2H4.6c-1.88,0-3.4,1.53-3.4,3.4v24c0,1.88,1.52,3.4,3.4,3.4h24c1.88,0,3.4-1.53,3.4-3.4v-14h1.2v14c0,2.54-2.06,4.6-4.6,4.6Z"/>
      <path class="cls-1" d="M28.6,13.2c-3.64,0-6.6-2.96-6.6-6.6S24.96,0,28.6,0s6.6,2.96,6.6,6.6-2.96,6.6-6.6,6.6ZM28.6,1.2c-2.98,0-5.4,2.42-5.4,5.4s2.42,5.4,5.4,5.4,5.4-2.42,5.4-5.4-2.42-5.4-5.4-5.4Z"/>
    </g>
  </g>
</svg>