<?xml version="1.0" encoding="UTF-8"?>
<svg id="Layer_2" data-name="Layer 2" xmlns="http://www.w3.org/2000/svg" viewBox="0 0 35.2 35.2">
  <defs>
    <style>
      .cls-1 {
        fill: #b50612;
      }
    </style>
  </defs>
  <g id="Layer_1-2" data-name="Layer 1">
    <g>
      <path class="cls-1" d="M7.36,30.8l-1.18-.2c.65-3.74,3.09-6.93,6.55-8.53l.5,1.09c-3.1,1.43-5.29,4.29-5.87,7.65Z"/>
      <path class="cls-1" d="M27.84,30.8c-.36-2.11-1.36-4.03-2.88-5.56-.87-.87-1.87-1.57-2.99-2.09l.51-1.09c1.24.58,2.36,1.36,3.33,2.33,1.7,1.7,2.81,3.85,3.22,6.2l-1.18.2Z"/>
      <path class="cls-1" d="M17.6,35.2C7.9,35.2,0,27.3,0,17.6S7.9,0,17.6,0s17.6,7.89,17.6,17.6-7.9,17.6-17.6,17.6ZM17.6,1.2C8.56,1.2,1.2,8.56,1.2,17.6s7.36,16.4,16.4,16.4,16.4-7.36,16.4-16.4S26.64,1.2,17.6,1.2Z"/>
      <path class="cls-1" d="M17.6,25.2c-4.19,0-7.6-3.86-7.6-8.6s3.41-8.6,7.6-8.6,7.6,3.86,7.6,8.6-3.41,8.6-7.6,8.6ZM17.6,9.2c-3.53,0-6.4,3.32-6.4,7.4s2.87,7.4,6.4,7.4,6.4-3.32,6.4-7.4-2.87-7.4-6.4-7.4Z"/>
    </g>
  </g>
</svg>