<?xml version="1.0" encoding="UTF-8"?>
<svg id="Layer_2" data-name="Layer 2" xmlns="http://www.w3.org/2000/svg" viewBox="0 0 38.2 35.2">
  <defs>
    <style>
      .cls-1 {
        fill: #b50612;
      }
    </style>
  </defs>
  <g id="Layer_1-2" data-name="Layer 1">
    <g>
      <path class="cls-1" d="M24.6,15.2H6.6c-.33,0-.6-.27-.6-.6V6.6c0-.33.27-.6.6-.6h18c.33,0,.6.27.6.6v8c0,.33-.27.6-.6.6ZM7.2,14h16.8v-6.8H7.2v6.8Z"/>
      <rect class="cls-1" x="5.6" y="19" width="20" height="1.2"/>
      <rect class="cls-1" x="5.6" y="24" width="20" height="1.2"/>
      <rect class="cls-1" x="5.6" y="29" width="10" height="1.2"/>
      <path class="cls-1" d="M34.1,35.2c-.17,0-.34,0-.5-.03v.03H3.6c-1.98,0-3.6-1.61-3.6-3.6V3.6C0,1.61,1.62,0,3.6,0h24c1.98,0,3.6,1.61,3.6,3.6v5.4h3.4c1.98,0,3.6,1.61,3.6,3.6v18.5c0,2.26-1.84,4.1-4.1,4.1ZM31.2,10.2v20.9c0,1.6,1.3,2.9,2.9,2.9s2.9-1.3,2.9-2.9V12.6c0-1.32-1.08-2.4-2.4-2.4h-3.4ZM3.6,1.2c-1.32,0-2.4,1.08-2.4,2.4v28c0,1.32,1.08,2.4,2.4,2.4h27.6c-.74-.74-1.2-1.77-1.2-2.9V3.6c0-1.32-1.08-2.4-2.4-2.4H3.6Z"/>
    </g>
  </g>
</svg>