<?xml version="1.0" encoding="UTF-8"?>
<svg id="Layer_2" data-name="Layer 2" xmlns="http://www.w3.org/2000/svg" viewBox="0 0 35.2 33.2">
  <defs>
    <style>
      .cls-1 {
        fill: #b50612;
      }
    </style>
  </defs>
  <g id="Layer_1-2" data-name="Layer 1">
    <g>
      <path class="cls-1" d="M29.6,28.2c-3.09,0-5.6-2.51-5.6-5.6s2.51-5.6,5.6-5.6,5.6,2.51,5.6,5.6-2.51,5.6-5.6,5.6ZM29.6,18.2c-2.43,0-4.4,1.97-4.4,4.4s1.97,4.4,4.4,4.4,4.4-1.97,4.4-4.4-1.97-4.4-4.4-4.4Z"/>
      <path class="cls-1" d="M5.6,16.2c-3.09,0-5.6-2.51-5.6-5.6s2.51-5.6,5.6-5.6,5.6,2.51,5.6,5.6-2.51,5.6-5.6,5.6ZM5.6,6.2c-2.43,0-4.4,1.97-4.4,4.4s1.97,4.4,4.4,4.4,4.4-1.97,4.4-4.4-1.97-4.4-4.4-4.4Z"/>
      <path class="cls-1" d="M11.6,33.2c-3.64,0-6.6-2.96-6.6-6.6v-11h1.2v11c0,2.98,2.42,5.4,5.4,5.4s5.4-2.42,5.4-5.4V6.6c0-3.64,2.96-6.6,6.6-6.6s6.6,2.96,6.6,6.6v11h-1.2V6.6c0-2.98-2.42-5.4-5.4-5.4s-5.4,2.42-5.4,5.4v20c0,3.64-2.96,6.6-6.6,6.6Z"/>
    </g>
  </g>
</svg>