<?xml version="1.0" encoding="UTF-8"?>
<svg id="Layer_2" data-name="Layer 2" xmlns="http://www.w3.org/2000/svg" viewBox="0 0 28.2 34.12">
  <defs>
    <style>
      .cls-1 {
        fill: #b50612;
      }
    </style>
  </defs>
  <g id="Layer_1-2" data-name="Layer 1">
    <path class="cls-1" d="M26.6,34.12c-.35,0-.71-.12-1-.35l-7.75-6.2c-.15-.12-.35-.12-.5,0l-7.75,6.2c-.49.39-1.13.46-1.69.19-.56-.27-.91-.82-.91-1.44V12.2H1.6c-.88,0-1.6-.72-1.6-1.6v-6C0,2.06,2.06,0,4.6,0h19c2.54,0,4.6,2.06,4.6,4.6v27.92c0,.62-.35,1.17-.91,1.44-.22.11-.46.16-.7.16ZM17.6,26.28c.35,0,.71.12,1,.35l7.75,6.2c.18.14.35.08.42.05.07-.03.23-.13.23-.36V4.6c0-1.88-1.52-3.4-3.4-3.4H7.28c.57.64.92,1.48.92,2.4v28.92c0,.23.16.33.23.36.07.03.25.09.42-.05l7.75-6.2c.29-.24.65-.35,1-.35ZM4.6,1.2c-1.88,0-3.4,1.53-3.4,3.4v6c0,.22.18.4.4.4h5.4V3.6c0-1.32-1.08-2.4-2.4-2.4Z"/>
  </g>
</svg>