<?xml version="1.0" encoding="UTF-8"?>
<svg id="Layer_2" data-name="Layer 2" xmlns="http://www.w3.org/2000/svg" viewBox="0 0 35.23 31.2">
  <defs>
    <style>
      .cls-1 {
        fill: #b50612;
      }
    </style>
  </defs>
  <g id="Layer_1-2" data-name="Layer 1">
    <g>
      <path class="cls-1" d="M32.63,31.2H2.6c-.94,0-1.78-.49-2.25-1.3-.47-.81-.47-1.79,0-2.6H.35L15.36,1.3c.47-.81,1.31-1.3,2.25-1.3s1.78.49,2.25,1.3l15.01,26c.47.81.47,1.79,0,2.6-.47.81-1.31,1.3-2.25,1.3ZM1.39,27.9c-.25.44-.25.96,0,1.4.25.44.71.7,1.21.7h30.02c.51,0,.96-.26,1.21-.7s.25-.96,0-1.4L18.83,1.9c-.25-.44-.71-.7-1.21-.7s-.96.26-1.21.7L1.39,27.9Z"/>
      <rect class="cls-1" x="17.02" y="9.6" width="1.2" height="13"/>
    </g>
  </g>
</svg>