<?xml version="1.0" encoding="UTF-8"?>
<svg id="Layer_2" data-name="Layer 2" xmlns="http://www.w3.org/2000/svg" viewBox="0 0 37.2 33.2">
  <defs>
    <style>
      .cls-1 {
        fill: #b50612;
      }
    </style>
  </defs>
  <g id="Layer_1-2" data-name="Layer 1">
    <g>
      <path class="cls-1" d="M32.6,33.2H4.6c-2.54,0-4.6-2.06-4.6-4.6V10.6c0-2.54,2.06-4.6,4.6-4.6h4.57l1.41-4.22c.35-1.06,1.35-1.78,2.47-1.78h11.12c1.12,0,2.11.71,2.47,1.78l1.41,4.22h4.57c2.54,0,4.6,2.06,4.6,4.6v18c0,2.54-2.06,4.6-4.6,4.6ZM4.6,7.2c-1.88,0-3.4,1.53-3.4,3.4v18c0,1.88,1.52,3.4,3.4,3.4h28c1.88,0,3.4-1.53,3.4-3.4V10.6c0-1.88-1.52-3.4-3.4-3.4h-5c-.26,0-.49-.17-.57-.41l-1.54-4.63c-.19-.57-.72-.96-1.33-.96h-11.12c-.6,0-1.14.38-1.33.96l-1.54,4.63c-.08.25-.31.41-.57.41h-5Z"/>
      <path class="cls-1" d="M18.6,28.2c-5.29,0-9.6-4.31-9.6-9.6s4.31-9.6,9.6-9.6,9.6,4.31,9.6,9.6-4.31,9.6-9.6,9.6ZM18.6,10.2c-4.63,0-8.4,3.77-8.4,8.4s3.77,8.4,8.4,8.4,8.4-3.77,8.4-8.4-3.77-8.4-8.4-8.4Z"/>
    </g>
  </g>
</svg>