<?xml version="1.0" encoding="UTF-8"?>
<svg id="Layer_2" data-name="Layer 2" xmlns="http://www.w3.org/2000/svg" viewBox="0 0 26.89 35.2">
  <defs>
    <style>
      .cls-1 {
        fill: #b50612;
      }
    </style>
  </defs>
  <g id="Layer_1-2" data-name="Layer 1">
    <g>
      <path class="cls-1" d="M24.29,35.2H2.6c-.72,0-1.42-.3-1.91-.83-.49-.53-.74-1.24-.69-1.96L1.78,8.48c.06-.83.76-1.48,1.6-1.48h20.14c.83,0,1.53.65,1.6,1.48l1.77,23.93c.05.72-.2,1.43-.69,1.96-.49.53-1.18.83-1.9.83ZM3.37,8.2c-.21,0-.38.16-.4.37l-1.77,23.93c-.03.39.1.77.37,1.06.27.29.63.45,1.03.45h21.69c.39,0,.76-.16,1.03-.45.27-.29.4-.66.37-1.06l-1.77-23.93c-.02-.21-.19-.37-.4-.37H3.37Z"/>
      <path class="cls-1" d="M18.45,8.2h-10c-.19,0-.37-.09-.48-.24s-.15-.34-.1-.53l1.18-4.12c.56-1.95,2.37-3.32,4.4-3.32s3.84,1.37,4.4,3.32l1.18,4.12c.05.18.02.38-.1.53s-.29.24-.48.24ZM9.24,7h8.41l-.96-3.35c-.41-1.44-1.75-2.45-3.25-2.45s-2.84,1.01-3.25,2.45l-.96,3.35Z"/>
    </g>
  </g>
</svg>