<?xml version="1.0" encoding="UTF-8"?>
<svg id="Layer_2" data-name="Layer 2" xmlns="http://www.w3.org/2000/svg" viewBox="0 0 37.2 37.2">
  <defs>
    <style>
      .cls-1 {
        fill: #b50612;
      }
    </style>
  </defs>
  <g id="Layer_1-2" data-name="Layer 1">
    <path class="cls-1" d="M22.6,37.2c-.11,0-.22-.03-.32-.09l-3.68-2.3-3.68,2.3c-.27.17-.64.09-.82-.18l-2-3c-.16-.24-.13-.55.07-.76l3.79-3.79-.88-7.06-13.36,2.86c-.31.07-.63-.13-.71-.44L.02,20.75c-.06-.26.05-.52.27-.66l14.74-8.84.79-8.71c.13-1.45,1.33-2.54,2.78-2.54s2.65,1.09,2.78,2.54l.79,8.71,14.74,8.84c.23.14.34.4.27.66l-1,4c-.08.31-.39.51-.71.44l-13.36-2.86-.88,7.06,3.79,3.79c.2.2.23.52.07.76l-2,3c-.12.17-.31.27-.5.27ZM18.6,33.5c.11,0,.22.03.32.09l3.51,2.19,1.4-2.11-3.65-3.65c-.13-.13-.19-.31-.17-.5l1-8c.02-.17.11-.32.25-.42.14-.1.31-.13.47-.1l13.43,2.88.75-3.01-14.62-8.77c-.16-.1-.27-.27-.29-.46l-.82-9.01c-.07-.82-.76-1.45-1.58-1.45s-1.51.62-1.58,1.45l-.82,9.01c-.02.19-.12.36-.29.46L1.29,20.89l.75,3.01,13.43-2.88c.16-.03.34,0,.47.1.14.1.23.25.25.42l1,8c.02.18-.04.37-.17.5l-3.65,3.65,1.4,2.11,3.51-2.19c.1-.06.21-.09.32-.09Z"/>
  </g>
</svg>