<?xml version="1.0" encoding="UTF-8"?>
<svg id="Layer_2" data-name="Layer 2" xmlns="http://www.w3.org/2000/svg" viewBox="0 0 34.75 34.75">
  <defs>
    <style>
      .cls-1 {
        fill: #b50612;
      }
    </style>
  </defs>
  <g id="Layer_1-2" data-name="Layer 1">
    <path class="cls-1" d="M17.37,34.75c-.61,0-1.16-.34-1.43-.88l-5.04-10.02L.88,18.8c-.54-.27-.88-.82-.88-1.43s.34-1.16.88-1.43l10.02-5.04L15.94.88c.27-.54.82-.88,1.43-.88s1.16.34,1.43.88l5.04,10.02,10.02,5.04c.54.27.88.82.88,1.43s-.34,1.16-.88,1.43l-10.02,5.04-5.04,10.02c-.27.54-.82.88-1.43.88ZM17.37,1.2c-.07,0-.26.02-.36.22l-5.22,10.38L1.42,17.02c-.2.1-.22.28-.22.36s.02.26.22.36l10.38,5.22,5.22,10.38c.1.2.28.22.36.22s.26-.02.36-.22l5.22-10.38,10.38-5.22c.2-.1.22-.28.22-.36s-.02-.26-.22-.36l-10.38-5.22L17.73,1.42c-.1-.2-.28-.22-.36-.22Z"/>
  </g>
</svg>