<?xml version="1.0" encoding="UTF-8"?>
<svg id="Layer_2" data-name="Layer 2" xmlns="http://www.w3.org/2000/svg" viewBox="0 0 35.2 29.2">
  <defs>
    <style>
      .cls-1 {
        fill: #b50612;
      }
    </style>
  </defs>
  <g id="Layer_1-2" data-name="Layer 1">
    <g>
      <path class="cls-1" d="M30.6,29.2H4.6c-2.54,0-4.6-2.06-4.6-4.6V4.6C0,2.06,2.06,0,4.6,0h26c2.54,0,4.6,2.06,4.6,4.6v20c0,2.54-2.06,4.6-4.6,4.6ZM4.6,1.2c-1.88,0-3.4,1.53-3.4,3.4v20c0,1.88,1.52,3.4,3.4,3.4h26c1.88,0,3.4-1.53,3.4-3.4V4.6c0-1.88-1.52-3.4-3.4-3.4H4.6Z"/>
      <polygon class="cls-1" points="17.6 15.3 .3 5.12 .9 4.08 17.6 13.9 34.3 4.08 34.9 5.12 17.6 15.3"/>
    </g>
  </g>
</svg>