<?xml version="1.0" encoding="UTF-8"?>
<svg id="Layer_2" data-name="Layer 2" xmlns="http://www.w3.org/2000/svg" viewBox="0 0 33.2 31.2">
  <defs>
    <style>
      .cls-1 {
        fill: #b50612;
      }
    </style>
  </defs>
  <g id="Layer_1-2" data-name="Layer 1">
    <path class="cls-1" d="M28.6,31.2H4.6c-2.54,0-4.6-2.06-4.6-4.6V4.6C0,2.06,2.06,0,4.6,0h7.3c1.26,0,2.44.67,3.09,1.75l1.25,2.09c.43.72,1.22,1.17,2.06,1.17h10.3c2.54,0,4.6,2.06,4.6,4.6v17c0,2.54-2.06,4.6-4.6,4.6ZM4.6,1.2c-1.88,0-3.4,1.53-3.4,3.4v22c0,1.88,1.52,3.4,3.4,3.4h24c1.88,0,3.4-1.53,3.4-3.4V9.6c0-1.88-1.52-3.4-3.4-3.4h-10.3c-1.26,0-2.44-.67-3.09-1.75l-1.25-2.09c-.43-.72-1.22-1.17-2.06-1.17h-7.3Z"/>
  </g>
</svg>