<?xml version="1.0" encoding="UTF-8"?>
<svg id="Layer_2" data-name="Layer 2" xmlns="http://www.w3.org/2000/svg" viewBox="0 0 39.2 34.6">
  <defs>
    <style>
      .cls-1 {
        fill: #b50612;
      }
    </style>
  </defs>
  <g id="Layer_1-2" data-name="Layer 1">
    <g>
      <rect class="cls-1" x="19" width="1.2" height="33"/>
      <rect class="cls-1" x="12.6" y="33.4" width="14" height="1.2"/>
      <path class="cls-1" d="M2.6,12.6c-.26,0-.5-.17-.58-.44-.09-.32.1-.65.42-.74L34.94,2.42c.32-.09.65.1.74.42.09.32-.1.65-.42.74L2.76,12.58c-.05.01-.11.02-.16.02Z"/>
      <path class="cls-1" d="M6.6,28.6h-2c-2.54,0-4.6-2.06-4.6-4.6,0-.88.72-1.6,1.6-1.6h8c.88,0,1.6.72,1.6,1.6,0,2.54-2.06,4.6-4.6,4.6ZM1.6,23.6c-.22,0-.4.18-.4.4,0,1.88,1.52,3.4,3.4,3.4h2c1.88,0,3.4-1.53,3.4-3.4,0-.22-.18-.4-.4-.4H1.6Z"/>
      <polygon class="cls-1" points="9.03 23.19 5.6 12.9 2.17 23.19 1.03 22.81 5.03 10.81 6.17 10.81 10.17 22.81 9.03 23.19"/>
      <path class="cls-1" d="M34.6,21.1h-2c-2.54,0-4.6-2.06-4.6-4.6,0-.88.72-1.6,1.6-1.6h8c.88,0,1.6.72,1.6,1.6,0,2.54-2.06,4.6-4.6,4.6ZM29.6,16.1c-.22,0-.4.18-.4.4,0,1.88,1.52,3.4,3.4,3.4h2c1.88,0,3.4-1.53,3.4-3.4,0-.22-.18-.4-.4-.4h-8Z"/>
      <polygon class="cls-1" points="37.03 15.69 33.6 5.4 30.17 15.69 29.03 15.31 33.03 3.31 34.17 3.31 38.17 15.31 37.03 15.69"/>
    </g>
  </g>
</svg>