<?xml version="1.0" encoding="UTF-8"?>
<svg id="Layer_2" data-name="Layer 2" xmlns="http://www.w3.org/2000/svg" viewBox="0 0 35.2 35.2">
  <defs>
    <style>
      .cls-1 {
        fill: #b50612;
      }
    </style>
  </defs>
  <g id="Layer_1-2" data-name="Layer 1">
    <g>
      <path class="cls-1" d="M17.6,32.2c-8.05,0-14.6-6.55-14.6-14.6S9.55,3,17.6,3s14.6,6.55,14.6,14.6-6.55,14.6-14.6,14.6ZM17.6,4.2c-7.39,0-13.4,6.01-13.4,13.4s6.01,13.4,13.4,13.4,13.4-6.01,13.4-13.4-6.01-13.4-13.4-13.4Z"/>
      <path class="cls-1" d="M17.6,23.2c-3.09,0-5.6-2.51-5.6-5.6s2.51-5.6,5.6-5.6,5.6,2.51,5.6,5.6-2.51,5.6-5.6,5.6ZM17.6,13.2c-2.43,0-4.4,1.97-4.4,4.4s1.97,4.4,4.4,4.4,4.4-1.97,4.4-4.4-1.97-4.4-4.4-4.4Z"/>
      <rect class="cls-1" x="17" y="22.6" width="1.2" height="9"/>
      <rect class="cls-1" x="26.04" y="16.04" width="1.2" height="9" transform="translate(-1.13 39.52) rotate(-72)"/>
      <rect class="cls-1" x="18.68" y="9.31" width="9" height="1.2" transform="translate(1.54 22.85) rotate(-54.01)"/>
      <rect class="cls-1" x="11.42" y="5.41" width="1.2" height="9" transform="translate(-3.53 8.96) rotate(-36)"/>
      <rect class="cls-1" x="4.06" y="19.94" width="9" height="1.2" transform="translate(-5.93 3.66) rotate(-18.02)"/>
      <path class="cls-1" d="M17.6,4.2c-.33,0-.6-.27-.6-.6V.6c0-.33.27-.6.6-.6s.6.27.6.6v3c0,.33-.27.6-.6.6Z"/>
      <path class="cls-1" d="M13.27,4.88c-.25,0-.49-.16-.57-.42l-.93-2.85c-.1-.32.07-.65.39-.76.32-.1.65.07.76.38l.93,2.85c.1.32-.07.65-.39.76-.06.02-.12.03-.19.03Z"/>
      <path class="cls-1" d="M9.37,6.87c-.19,0-.37-.08-.49-.25l-1.76-2.43c-.19-.27-.14-.64.13-.84.27-.2.64-.14.84.13l1.76,2.43c.19.27.14.64-.13.84-.11.08-.23.11-.35.11Z"/>
      <path class="cls-1" d="M6.27,9.97c-.12,0-.25-.04-.35-.11l-2.43-1.76c-.27-.19-.33-.57-.13-.84.19-.27.57-.33.84-.13l2.43,1.76c.27.19.33.57.13.84-.12.16-.3.25-.49.25Z"/>
      <path class="cls-1" d="M4.29,13.87c-.06,0-.12,0-.19-.03l-2.85-.93c-.31-.1-.49-.44-.39-.76.1-.32.44-.49.76-.38l2.85.93c.31.1.49.44.39.76-.08.25-.32.42-.57.42Z"/>
      <path class="cls-1" d="M3.6,18.2H.6c-.33,0-.6-.27-.6-.6s.27-.6.6-.6h3c.33,0,.6.27.6.6s-.27.6-.6.6Z"/>
      <path class="cls-1" d="M1.43,23.45c-.25,0-.49-.16-.57-.42-.1-.32.07-.65.39-.76l2.85-.93c.32-.1.65.07.76.38.1.32-.07.65-.39.76l-2.85.93c-.06.02-.12.03-.19.03Z"/>
      <path class="cls-1" d="M3.85,28.19c-.19,0-.37-.08-.49-.25-.19-.27-.14-.64.13-.84l2.43-1.76c.27-.2.64-.14.84.13.19.27.14.64-.13.84l-2.43,1.76c-.11.08-.23.11-.35.11Z"/>
      <path class="cls-1" d="M7.61,31.95c-.12,0-.25-.04-.35-.11-.27-.19-.33-.57-.13-.84l1.76-2.43c.19-.27.57-.33.84-.13.27.19.33.57.13.84l-1.76,2.43c-.12.16-.3.25-.49.25Z"/>
      <path class="cls-1" d="M12.35,34.37c-.06,0-.12,0-.19-.03-.31-.1-.49-.44-.39-.76l.93-2.85c.1-.31.44-.49.76-.38.31.1.49.44.39.76l-.93,2.85c-.08.25-.32.42-.57.42Z"/>
      <path class="cls-1" d="M17.6,35.2c-.33,0-.6-.27-.6-.6v-3c0-.33.27-.6.6-.6s.6.27.6.6v3c0,.33-.27.6-.6.6Z"/>
      <path class="cls-1" d="M22.85,34.37c-.25,0-.49-.16-.57-.42l-.93-2.85c-.1-.32.07-.65.39-.76.31-.1.65.07.76.38l.93,2.85c.1.32-.07.65-.39.76-.06.02-.12.03-.19.03Z"/>
      <path class="cls-1" d="M27.59,31.95c-.19,0-.37-.08-.49-.25l-1.76-2.43c-.19-.27-.14-.64.13-.84.27-.2.64-.14.84.13l1.76,2.43c.19.27.14.64-.13.84-.11.08-.23.11-.35.11Z"/>
      <path class="cls-1" d="M31.35,28.19c-.12,0-.25-.04-.35-.11l-2.43-1.76c-.27-.19-.33-.57-.13-.84.19-.27.57-.33.84-.13l2.43,1.76c.27.19.33.57.13.84-.12.16-.3.25-.49.25Z"/>
      <path class="cls-1" d="M33.77,23.45c-.06,0-.12,0-.19-.03l-2.85-.93c-.31-.1-.49-.44-.39-.76.1-.31.44-.49.76-.38l2.85.93c.31.1.49.44.39.76-.08.25-.32.42-.57.42Z"/>
      <path class="cls-1" d="M34.6,18.2h-3c-.33,0-.6-.27-.6-.6s.27-.6.6-.6h3c.33,0,.6.27.6.6s-.27.6-.6.6Z"/>
      <path class="cls-1" d="M30.92,13.87c-.25,0-.49-.16-.57-.42-.1-.32.07-.65.39-.76l2.85-.93c.31-.1.65.07.76.38.1.32-.07.65-.39.76l-2.85.93c-.06.02-.12.03-.19.03Z"/>
      <path class="cls-1" d="M28.93,9.97c-.19,0-.37-.08-.49-.25-.19-.27-.14-.64.13-.84l2.43-1.76c.27-.2.64-.14.84.13.19.27.14.64-.13.84l-2.43,1.76c-.11.08-.23.11-.35.11Z"/>
      <path class="cls-1" d="M25.83,6.87c-.12,0-.25-.04-.35-.11-.27-.19-.33-.57-.13-.84l1.76-2.43c.19-.27.57-.33.84-.13.27.19.33.57.13.84l-1.76,2.43c-.12.16-.3.25-.49.25Z"/>
      <path class="cls-1" d="M21.93,4.88c-.06,0-.12,0-.19-.03-.31-.1-.49-.44-.39-.76l.93-2.85c.1-.32.44-.49.76-.38.31.1.49.44.39.76l-.93,2.85c-.08.25-.32.42-.57.42Z"/>
    </g>
  </g>
</svg>