<?xml version="1.0" encoding="UTF-8"?>
<svg id="Layer_2" data-name="Layer 2" xmlns="http://www.w3.org/2000/svg" viewBox="0 0 37.2 37.2">
  <defs>
    <style>
      .cls-1 {
        fill: #b50612;
      }
    </style>
  </defs>
  <g id="Layer_1-2" data-name="Layer 1">
    <g>
      <path class="cls-1" d="M.6,37.2c-.12,0-.23-.03-.33-.1-.17-.11-.27-.3-.27-.5V5.6c0-.24.15-.46.37-.55L12.37.05c.15-.06.31-.06.46,0l11.77,4.9L36.37.05c.19-.08.4-.06.56.05.17.11.27.3.27.5v31c0,.24-.15.46-.37.55l-12,5c-.15.06-.31.06-.46,0l-11.77-4.9L.83,37.15c-.07.03-.15.05-.23.05ZM12.6,31c.08,0,.16.01.23.05l11.77,4.9,11.4-4.75V1.5l-11.17,4.65c-.15.06-.31.06-.46,0L12.6,1.25,1.2,6v29.7l11.17-4.65c.07-.03.15-.05.23-.05Z"/>
      <rect class="cls-1" x="12" y="1.6" width="1.2" height="30"/>
      <rect class="cls-1" x="24" y="5.6" width="1.2" height="30"/>
    </g>
  </g>
</svg>