<?xml version="1.0" encoding="UTF-8"?>
<svg id="Layer_2" data-name="Layer 2" xmlns="http://www.w3.org/2000/svg" viewBox="0 0 33.2 35.2">
  <defs>
    <style>
      .cls-1 {
        fill: #b50612;
      }
    </style>
  </defs>
  <g id="Layer_1-2" data-name="Layer 1">
    <g>
      <g>
        <path class="cls-1" d="M20.6,35.2H4.6c-2.54,0-4.6-2.06-4.6-4.6V11.6c0-2.54,2.06-4.6,4.6-4.6h9.59c.43,0,.83.17,1.13.47l9.41,9.41c.3.3.47.7.47,1.13v12.59c0,2.54-2.06,4.6-4.6,4.6ZM4.6,8.2c-1.88,0-3.4,1.53-3.4,3.4v19c0,1.88,1.52,3.4,3.4,3.4h16c1.88,0,3.4-1.53,3.4-3.4v-12.59c0-.11-.04-.21-.12-.28l-9.41-9.41c-.07-.07-.18-.12-.28-.12H4.6Z"/>
        <path class="cls-1" d="M24.1,18.2h-5.5c-2.54,0-4.6-2.06-4.6-4.6v-5.5h1.2v5.5c0,1.88,1.52,3.4,3.4,3.4h5.5v1.2Z"/>
      </g>
      <g>
        <path class="cls-1" d="M28.6,28.2h-4v-1.2h4c1.88,0,3.4-1.53,3.4-3.4v-12.59c0-.11-.04-.21-.12-.28L22.47,1.32c-.07-.07-.18-.12-.28-.12h-9.59c-1.88,0-3.4,1.53-3.4,3.4v3h-1.2v-3c0-2.54,2.06-4.6,4.6-4.6h9.59c.43,0,.83.17,1.13.47l9.41,9.41c.3.3.47.7.47,1.13v12.59c0,2.54-2.06,4.6-4.6,4.6Z"/>
        <path class="cls-1" d="M32.1,11.2h-5.5c-2.54,0-4.6-2.06-4.6-4.6V1.1h1.2v5.5c0,1.88,1.52,3.4,3.4,3.4h5.5v1.2Z"/>
      </g>
    </g>
  </g>
</svg>