<?xml version="1.0" encoding="UTF-8"?>
<svg id="Layer_2" data-name="Layer 2" xmlns="http://www.w3.org/2000/svg" viewBox="0 0 41.53 30.2">
  <defs>
    <style>
      .cls-1 {
        fill: #b50612;
      }
    </style>
  </defs>
  <g id="Layer_1-2" data-name="Layer 1">
    <g>
      <path class="cls-1" d="M20.77,30.2c-2.54,0-4.6-2.06-4.6-4.6s2.06-4.6,4.6-4.6,4.6,2.06,4.6,4.6-2.06,4.6-4.6,4.6ZM20.77,22.2c-1.88,0-3.4,1.53-3.4,3.4s1.52,3.4,3.4,3.4,3.4-1.53,3.4-3.4-1.52-3.4-3.4-3.4Z"/>
      <path class="cls-1" d="M30.3,21.42c-1.67-3.78-5.41-6.22-9.53-6.22s-7.87,2.44-9.53,6.22l-1.1-.48c1.86-4.21,6.03-6.94,10.63-6.94s8.77,2.72,10.63,6.94l-1.1.48Z"/>
      <path class="cls-1" d="M35.49,16.35c-3.2-5.1-8.7-8.15-14.72-8.15s-11.52,3.05-14.72,8.15l-1.02-.64c3.42-5.46,9.3-8.71,15.74-8.71s12.32,3.26,15.74,8.71l-1.02.64Z"/>
      <path class="cls-1" d="M40.56,11.33C35.99,4.99,28.59,1.2,20.77,1.2S5.54,4.99.97,11.33l-.97-.7C4.79,3.97,12.56,0,20.77,0s15.97,3.97,20.77,10.63l-.97.7Z"/>
    </g>
  </g>
</svg>