<?xml version="1.0" encoding="UTF-8"?>
<svg id="Layer_2" data-name="Layer 2" xmlns="http://www.w3.org/2000/svg" viewBox="0 0 29.2 38.2">
  <defs>
    <style>
      .cls-1 {
        fill: #b50612;
      }
    </style>
  </defs>
  <g id="Layer_1-2" data-name="Layer 1">
    <g>
      <path class="cls-1" d="M24.6,38.2H4.6c-2.54,0-4.6-2.06-4.6-4.6v-13c0-2.54,2.06-4.6,4.6-4.6h20c2.54,0,4.6,2.06,4.6,4.6v13c0,2.54-2.06,4.6-4.6,4.6ZM4.6,17.2c-1.88,0-3.4,1.53-3.4,3.4v13c0,1.88,1.52,3.4,3.4,3.4h20c1.88,0,3.4-1.53,3.4-3.4v-13c0-1.88-1.52-3.4-3.4-3.4H4.6Z"/>
      <path class="cls-1" d="M6.2,16.6h-1.2v-7C5,4.31,9.31,0,14.6,0s9.6,4.31,9.6,9.6v1h-1.2v-1c0-4.63-3.77-8.4-8.4-8.4S6.2,4.97,6.2,9.6v7Z"/>
    </g>
  </g>
</svg>