<?xml version="1.0" encoding="UTF-8"?>
<svg id="Layer_2" data-name="Layer 2" xmlns="http://www.w3.org/2000/svg" viewBox="0 0 33.2 35.18">
  <defs>
    <style>
      .cls-1 {
        fill: #b50612;
      }
    </style>
  </defs>
  <g id="Layer_1-2" data-name="Layer 1">
    <path class="cls-1" d="M31.6,35.18h-9c-.88,0-1.6-.72-1.6-1.6v-13c0-.22-.18-.4-.4-.4h-8c-.22,0-.4.18-.4.4v13c0,.88-.72,1.6-1.6,1.6H1.6c-.88,0-1.6-.72-1.6-1.6V13.06c0-.48.22-.94.59-1.24L14.01.91h0c1.5-1.22,3.67-1.22,5.17,0l13.42,10.91c.38.3.59.76.59,1.24v20.52c0,.88-.72,1.6-1.6,1.6ZM12.6,18.99h8c.88,0,1.6.72,1.6,1.6v13c0,.22.18.4.4.4h9c.22,0,.4-.18.4-.4V13.06c0-.12-.05-.23-.15-.31L18.43,1.84c-1.06-.86-2.6-.86-3.66,0L1.35,12.75c-.09.08-.15.19-.15.31v20.52c0,.22.18.4.4.4h9c.22,0,.4-.18.4-.4v-13c0-.88.72-1.6,1.6-1.6Z"/>
  </g>
</svg>