<?xml version="1.0" encoding="UTF-8"?>
<svg id="Layer_2" data-name="Layer 2" xmlns="http://www.w3.org/2000/svg" viewBox="0 0 33.2 34.91">
  <defs>
    <style>
      .cls-1 {
        fill: #b50612;
      }
    </style>
  </defs>
  <g id="Layer_1-2" data-name="Layer 1">
    <g>
      <path class="cls-1" d="M5.6,34.91c-3.09,0-5.6-2.51-5.6-5.6s2.51-5.6,5.6-5.6,5.6,2.51,5.6,5.6-2.51,5.6-5.6,5.6ZM5.6,24.91c-2.43,0-4.4,1.97-4.4,4.4s1.97,4.4,4.4,4.4,4.4-1.97,4.4-4.4-1.97-4.4-4.4-4.4Z"/>
      <path class="cls-1" d="M11.2,29.31h-1.2V5.05c0-1.29.97-2.4,2.25-2.58L30.25.02c.74-.1,1.49.12,2.06.62.57.49.89,1.21.89,1.96v23.71h-1.2V2.6c0-.4-.17-.79-.48-1.05-.3-.27-.71-.38-1.11-.33L12.41,3.67c-.69.09-1.21.69-1.21,1.39v24.25Z"/>
      <rect class="cls-1" x="10.5" y="8.21" width="22.2" height="1.2" transform="translate(-.99 3) rotate(-7.76)"/>
      <path class="cls-1" d="M27.6,31.91c-3.09,0-5.6-2.51-5.6-5.6s2.51-5.6,5.6-5.6,5.6,2.51,5.6,5.6-2.51,5.6-5.6,5.6ZM27.6,21.91c-2.43,0-4.4,1.97-4.4,4.4s1.97,4.4,4.4,4.4,4.4-1.97,4.4-4.4-1.97-4.4-4.4-4.4Z"/>
    </g>
  </g>
</svg>