<?xml version="1.0" encoding="UTF-8"?>
<svg id="Layer_2" data-name="Layer 2" xmlns="http://www.w3.org/2000/svg" viewBox="0 0 33.2 33.2">
  <defs>
    <style>
      .cls-1 {
        fill: #b50612;
      }
    </style>
  </defs>
  <g id="Layer_1-2" data-name="Layer 1">
    <g>
      <path class="cls-1" d="M28.6,33.2H4.6c-2.54,0-4.6-2.06-4.6-4.6V4.6C0,2.06,2.06,0,4.6,0h24c2.54,0,4.6,2.06,4.6,4.6v24c0,2.54-2.06,4.6-4.6,4.6ZM4.6,1.2c-1.88,0-3.4,1.53-3.4,3.4v24c0,1.88,1.52,3.4,3.4,3.4h24c1.88,0,3.4-1.53,3.4-3.4V4.6c0-1.88-1.52-3.4-3.4-3.4H4.6Z"/>
      <polygon class="cls-1" points="20.58 25.39 9.64 15.45 1.05 25 .15 24.2 9.56 13.75 20.62 23.8 26.6 18.82 32.98 24.14 32.22 25.06 26.6 20.38 20.58 25.39"/>
      <path class="cls-1" d="M23.6,14.2c-2.54,0-4.6-2.06-4.6-4.6s2.06-4.6,4.6-4.6,4.6,2.06,4.6,4.6-2.06,4.6-4.6,4.6ZM23.6,6.2c-1.88,0-3.4,1.53-3.4,3.4s1.52,3.4,3.4,3.4,3.4-1.53,3.4-3.4-1.52-3.4-3.4-3.4Z"/>
    </g>
  </g>
</svg>