<?xml version="1.0" encoding="UTF-8"?>
<svg id="Layer_2" data-name="Layer 2" xmlns="http://www.w3.org/2000/svg" viewBox="0 0 35.2 33.2">
  <defs>
    <style>
      .cls-1 {
        fill: #b50612;
      }
    </style>
  </defs>
  <g id="Layer_1-2" data-name="Layer 1">
    <g>
      <path class="cls-1" d="M30.6,33.2H4.6c-2.54,0-4.6-2.06-4.6-4.6V10.6c0-2.54,2.06-4.6,4.6-4.6h26c2.54,0,4.6,2.06,4.6,4.6v18c0,2.54-2.06,4.6-4.6,4.6ZM4.6,7.2c-1.88,0-3.4,1.53-3.4,3.4v18c0,1.88,1.52,3.4,3.4,3.4h26c1.88,0,3.4-1.53,3.4-3.4V10.6c0-1.88-1.52-3.4-3.4-3.4H4.6Z"/>
      <path class="cls-1" d="M24.6,7.2h-14c-.33,0-.6-.27-.6-.6v-3c0-1.99,1.62-3.6,3.6-3.6h8c1.98,0,3.6,1.61,3.6,3.6v3c0,.33-.27.6-.6.6ZM11.2,6h12.8v-2.4c0-1.32-1.08-2.4-2.4-2.4h-8c-1.32,0-2.4,1.08-2.4,2.4v2.4Z"/>
      <rect class="cls-1" x=".6" y="18" width="13" height="1.2"/>
      <rect class="cls-1" x="21.6" y="18" width="12.5" height="1.2"/>
      <path class="cls-1" d="M20.6,22.2h-6c-.88,0-1.6-.72-1.6-1.6v-4c0-.88.72-1.6,1.6-1.6h6c.88,0,1.6.72,1.6,1.6v4c0,.88-.72,1.6-1.6,1.6ZM14.6,16.2c-.22,0-.4.18-.4.4v4c0,.22.18.4.4.4h6c.22,0,.4-.18.4-.4v-4c0-.22-.18-.4-.4-.4h-6Z"/>
    </g>
  </g>
</svg>