<?xml version="1.0" encoding="UTF-8"?>
<svg id="Layer_2" data-name="Layer 2" xmlns="http://www.w3.org/2000/svg" viewBox="0 0 25.2 35.2">
  <defs>
    <style>
      .cls-1 {
        fill: #b50612;
      }
    </style>
  </defs>
  <g id="Layer_1-2" data-name="Layer 1">
    <g>
      <path class="cls-1" d="M12.6,35.2c-2.54,0-4.6-2.06-4.6-4.6v-6.27C3.2,22.45,0,17.79,0,12.6,0,5.65,5.65,0,12.6,0s12.6,5.65,12.6,12.6c0,5.19-3.2,9.85-8,11.73v6.27c0,2.54-2.06,4.6-4.6,4.6ZM12.6,1.2C6.31,1.2,1.2,6.31,1.2,12.6c0,4.83,3.05,9.14,7.6,10.74.24.08.4.31.4.57v6.69c0,1.88,1.52,3.4,3.4,3.4s3.4-1.53,3.4-3.4v-6.69c0-.25.16-.48.4-.57,4.55-1.6,7.6-5.92,7.6-10.74,0-6.29-5.11-11.4-11.4-11.4Z"/>
      <rect class="cls-1" x="12" y="18.6" width="1.2" height="7"/>
      <rect class="cls-1" x="8.6" y="26" width="7" height="1.2"/>
      <rect class="cls-1" x="8.6" y="30" width="7" height="1.2"/>
      <rect class="cls-1" x="10.5" y="14.98" width="1.2" height="4.24" transform="translate(-8.84 12.86) rotate(-45)"/>
      <rect class="cls-1" x="11.98" y="16.5" width="4.24" height="1.2" transform="translate(-7.96 14.99) rotate(-45.03)"/>
    </g>
  </g>
</svg>