<?xml version="1.0" encoding="UTF-8"?>
<svg id="Layer_2" data-name="Layer 2" xmlns="http://www.w3.org/2000/svg" viewBox="0 0 33.16 33.16">
  <defs>
    <style>
      .cls-1 {
        fill: #b50612;
      }
    </style>
  </defs>
  <g id="Layer_1-2" data-name="Layer 1">
    <g>
      <path class="cls-1" d="M14.5,33.16c-1.23,0-2.38-.48-3.25-1.35h0L1.34,21.91c-1.79-1.79-1.79-4.71,0-6.5L15.4,1.35c.87-.87,2.02-1.35,3.25-1.35h11.9c1.43,0,2.6,1.17,2.6,2.6v11.9c0,1.23-.48,2.38-1.35,3.25l-14.06,14.06c-.87.87-2.02,1.35-3.25,1.35ZM18.66,1.2c-.91,0-1.76.35-2.4,1L2.19,16.25c-1.33,1.33-1.33,3.48,0,4.81l9.9,9.9h0c1.28,1.28,3.52,1.28,4.81,0l14.06-14.06c.64-.64,1-1.5,1-2.4V2.6c0-.77-.63-1.4-1.4-1.4h-11.9Z"/>
      <path class="cls-1" d="M23.56,13.2c-1.98,0-3.6-1.61-3.6-3.6s1.62-3.6,3.6-3.6,3.6,1.61,3.6,3.6-1.62,3.6-3.6,3.6ZM23.56,7.2c-1.32,0-2.4,1.08-2.4,2.4s1.08,2.4,2.4,2.4,2.4-1.08,2.4-2.4-1.08-2.4-2.4-2.4Z"/>
    </g>
  </g>
</svg>