<?xml version="1.0" encoding="UTF-8"?>
<svg id="Layer_2" data-name="Layer 2" xmlns="http://www.w3.org/2000/svg" viewBox="0 0 24.08 36.25">
  <defs>
    <style>
      .cls-1 {
        fill: #b50612;
      }
    </style>
  </defs>
  <g id="Layer_1-2" data-name="Layer 1">
    <path class="cls-1" d="M15.08,36.25c-.06,0-.11,0-.17-.02-.15-.04-.28-.15-.36-.29l-6.82-12.56L.97,28.58c-.18.14-.43.16-.63.06-.21-.1-.33-.31-.33-.54V.6C0,.38.12.18.31.07c.19-.11.43-.1.61.02l22.88,14.89c.19.12.29.34.27.57-.02.23-.17.42-.39.5l-7.88,2.92,6.83,12.57c.08.14.09.3.05.46-.04.15-.15.28-.29.36l-7.03,3.82c-.09.05-.19.07-.29.07ZM7.92,21.87s.08,0,.12.01c.17.04.32.15.4.3l6.87,12.66,5.98-3.25-6.87-12.65c-.08-.15-.1-.33-.03-.5.06-.16.19-.29.35-.35l7.41-2.75L1.2,1.71v25.17l6.36-4.89c.11-.08.23-.12.37-.12Z"/>
  </g>
</svg>