<?xml version="1.0" encoding="UTF-8"?>
<svg id="Layer_2" data-name="Layer 2" xmlns="http://www.w3.org/2000/svg" viewBox="0 0 20.15 34.57">
  <defs>
    <style>
      .cls-1 {
        fill: #b50612;
      }
    </style>
  </defs>
  <g id="Layer_1-2" data-name="Layer 1">
    <path class="cls-1" d="M18.55,34.57c-.39,0-.77-.15-1.07-.42l-9.72-8.91c-.26-.24-.6-.37-.95-.37h-3.2c-1.98,0-3.6-1.61-3.6-3.6v-7.96c0-1.99,1.62-3.6,3.6-3.6h3.2c.35,0,.69-.13.95-.37L17.47.42c.47-.43,1.13-.54,1.72-.28.59.26.95.82.95,1.46v31.37c0,.64-.37,1.2-.95,1.46-.21.09-.43.14-.65.14ZM3.6,10.9c-1.32,0-2.4,1.08-2.4,2.4v7.96c0,1.32,1.08,2.4,2.4,2.4h3.2c.65,0,1.28.24,1.76.68l9.72,8.91c.17.16.36.1.43.07.07-.03.24-.13.24-.36V1.6c0-.23-.17-.33-.24-.36-.07-.03-.26-.09-.43.07l-9.72,8.91c-.48.44-1.1.68-1.76.68h-3.2Z"/>
  </g>
</svg>