<?xml version="1.0" encoding="UTF-8"?>
<svg id="Layer_2" data-name="Layer 2" xmlns="http://www.w3.org/2000/svg" viewBox="0 0 27.2 27.2">
  <defs>
    <style>
      .cls-1 {
        fill: #b50612;
      }
    </style>
  </defs>
  <g id="Layer_1-2" data-name="Layer 1">
    <g>
      <path class="cls-1" d="M9.6,27.2c-5.29,0-9.6-4.31-9.6-9.6s4.31-9.6,9.6-9.6,9.6,4.31,9.6,9.6-4.31,9.6-9.6,9.6ZM9.6,9.2c-4.63,0-8.4,3.77-8.4,8.4s3.77,8.4,8.4,8.4,8.4-3.77,8.4-8.4-3.77-8.4-8.4-8.4Z"/>
      <rect class="cls-1" x="14.13" y="5.75" width="13.44" height="1.2" transform="translate(1.62 16.61) rotate(-45.03)"/>
      <path class="cls-1" d="M27.2,10.6h-1.2V1.2h-9.4V0h10c.33,0,.6.27.6.6v10Z"/>
    </g>
  </g>
</svg>