<?xml version="1.0" encoding="UTF-8"?>
<svg id="Layer_2" data-name="Layer 2" xmlns="http://www.w3.org/2000/svg" viewBox="0 0 37.2 32.2">
  <defs>
    <style>
      .cls-1 {
        fill: #b50612;
      }
    </style>
  </defs>
  <g id="Layer_1-2" data-name="Layer 1">
    <path class="cls-1" d="M18.6,32.2c-.11,0-.21-.03-.31-.09-.37-.22-.76-.46-1.19-.71C11.13,27.87,0,21.29,0,10.6,0,4.75,4.76,0,10.6,0c3.06,0,6,1.35,8,3.66,2-2.3,4.94-3.66,8-3.66,5.84,0,10.6,4.75,10.6,10.6,0,10.69-11.13,17.27-17.1,20.81-.42.25-.82.49-1.19.71-.1.06-.2.09-.31.09ZM10.6,1.2C5.42,1.2,1.2,5.42,1.2,10.6c0,10,10.74,16.36,16.52,19.78.31.18.61.36.88.53.28-.17.58-.34.88-.53,5.77-3.42,16.52-9.77,16.52-19.78,0-5.18-4.22-9.4-9.4-9.4-2.94,0-5.75,1.41-7.52,3.77-.23.3-.73.3-.96,0-1.77-2.36-4.58-3.77-7.52-3.77Z"/>
  </g>
</svg>