<?xml version="1.0" encoding="UTF-8"?>
<svg id="Layer_2" data-name="Layer 2" xmlns="http://www.w3.org/2000/svg" viewBox="0 0 35.2 35.2">
  <defs>
    <style>
      .cls-1 {
        fill: #b50612;
      }
    </style>
  </defs>
  <g id="Layer_1-2" data-name="Layer 1">
    <g>
      <path class="cls-1" d="M17.6,35.2C7.9,35.2,0,27.3,0,17.6S7.9,0,17.6,0s17.6,7.89,17.6,17.6-7.9,17.6-17.6,17.6ZM17.6,1.2C8.56,1.2,1.2,8.56,1.2,17.6s7.36,16.4,16.4,16.4,16.4-7.36,16.4-16.4S26.64,1.2,17.6,1.2Z"/>
      <path class="cls-1" d="M15.6,23.2c-.15,0-.31-.06-.42-.18l-5-5,.85-.85,4.58,4.58,9.58-9.58.85.85-10,10c-.12.12-.27.18-.42.18Z"/>
    </g>
  </g>
</svg>