<?xml version="1.0" encoding="UTF-8"?>
<svg id="Layer_2" data-name="Layer 2" xmlns="http://www.w3.org/2000/svg" viewBox="0 0 33.2 34.2">
  <defs>
    <style>
      .cls-1 {
        fill: #b50612;
      }
    </style>
  </defs>
  <g id="Layer_1-2" data-name="Layer 1">
    <g>
      <path class="cls-1" d="M28.6,31.2h-2v-1.2h2c1.88,0,3.4-1.53,3.4-3.4V4.6c0-1.88-1.52-3.4-3.4-3.4H4.6c-1.88,0-3.4,1.53-3.4,3.4v22c0,1.88,1.52,3.4,3.4,3.4h2v1.2h-2c-2.54,0-4.6-2.06-4.6-4.6V4.6C0,2.06,2.06,0,4.6,0h24c2.54,0,4.6,2.06,4.6,4.6v22c0,2.54-2.06,4.6-4.6,4.6Z"/>
      <path class="cls-1" d="M23.6,34.2h-14c-.22,0-.43-.12-.53-.32s-.09-.44.04-.62l7-10c.22-.32.76-.32.98,0l7,10c.13.18.14.42.04.62s-.31.32-.53.32ZM10.75,33h11.7l-5.85-8.35-5.85,8.35Z"/>
    </g>
  </g>
</svg>