<?xml version="1.0" encoding="UTF-8"?>
<svg id="Layer_2" data-name="Layer 2" xmlns="http://www.w3.org/2000/svg" viewBox="0 0 35.2 36.2">
  <defs>
    <style>
      .cls-1 {
        fill: #b50612;
      }
    </style>
  </defs>
  <g id="Layer_1-2" data-name="Layer 1">
    <g>
      <path class="cls-1" d="M17.6,32.57h0c-.16,0-.31-.06-.42-.18l-9.48-9.48c-1.06-1.13-1.9-2.4-2.52-3.78-.78-1.74-1.18-3.6-1.18-5.53C4,6.1,10.1,0,17.6,0s13.6,6.1,13.6,13.6c0,1.93-.4,3.79-1.18,5.53-.61,1.38-1.46,2.65-2.51,3.77l-9.49,9.5c-.11.11-.27.18-.42.18ZM17.6,1.2c-6.84,0-12.4,5.56-12.4,12.4,0,1.76.36,3.45,1.07,5.04.56,1.26,1.33,2.42,2.29,3.44l9.04,9.04,9.06-9.06c.94-1,1.71-2.16,2.27-3.42.71-1.59,1.07-3.28,1.07-5.04,0-6.84-5.56-12.4-12.4-12.4Z"/>
      <path class="cls-1" d="M34.6,36.2H.6c-.19,0-.37-.09-.48-.24s-.15-.35-.09-.53l3-10,1.15.35-2.77,9.23h32.39l-2.77-9.23,1.15-.35,3,10c.05.18.02.38-.09.53s-.29.24-.48.24Z"/>
      <path class="cls-1" d="M17.6,19.2c-3.09,0-5.6-2.51-5.6-5.6s2.51-5.6,5.6-5.6,5.6,2.51,5.6,5.6-2.51,5.6-5.6,5.6ZM17.6,9.2c-2.43,0-4.4,1.97-4.4,4.4s1.97,4.4,4.4,4.4,4.4-1.97,4.4-4.4-1.97-4.4-4.4-4.4Z"/>
    </g>
  </g>
</svg>